<?xml version="1.0" encoding="utf-8"?>
<!-- Generator: Adobe Illustrator 25.2.1, SVG Export Plug-In . SVG Version: 6.00 Build 0)  -->
<svg version="1.1" xmlns="http://www.w3.org/2000/svg" xmlns:xlink="http://www.w3.org/1999/xlink" x="0px" y="0px"
	 viewBox="0 0 1920 1080" style="enable-background:new 0 0 1920 1080;" xml:space="preserve">
<style type="text/css">
	.st0{fill:#01763A;}
	.st1{fill:#DCA041;}
	.st2{fill:#FFFFFF;}
	.st3{fill:#025B2A;}
	.st4{fill:none;stroke:#FFFFFF;stroke-width:4;stroke-miterlimit:10;}
</style>
<g id="Layer_1">
	<g>
		<rect y="0" class="st0" width="1920" height="1080"/>
	</g>
</g>
<g id="Layer_2">
	<g>
		<g>
			<path class="st1" d="M536.5,368.1c4.3,2,7.2,4,8.7,5.8c2.2,2.7,2.9,5.6,2.2,9c-0.8,3.5-2.8,6.1-6.3,7.7c-4.2,2-9.7,2.2-16.6,0.7
				c-8.2-1.9-16.4-3.8-24.5-5.7c0.1-0.4,0.2-0.8,0.3-1.3c2.2,0.5,3.8,0.7,4.7,0.5c0.9-0.2,1.6-0.6,2-1.2c0.5-0.6,1-2.1,1.6-4.6
				c2.4-10,4.7-20.1,7.1-30.1c0.6-2.5,0.8-4.1,0.7-4.8c-0.2-0.7-0.6-1.4-1.3-1.9c-0.7-0.6-2.1-1.1-4.3-1.6c0.1-0.4,0.2-0.8,0.3-1.3
				c7.5,1.8,15,3.6,22.6,5.3c5.4,1.2,9.1,2.5,11.2,4c2,1.4,3.5,3.3,4.4,5.4c0.9,2.2,1.1,4.3,0.6,6.5c-0.5,2.2-1.7,4.1-3.8,5.5
				C544.2,367.3,540.9,368,536.5,368.1z M523.3,367c-1.1,5-2.3,9.9-3.4,14.9c-0.1,0.6-0.3,1.1-0.4,1.7c-0.3,1.2-0.2,2.2,0.3,3
				c0.5,0.8,1.4,1.3,2.7,1.6c1.9,0.4,3.7,0.4,5.5,0c1.8-0.5,3.3-1.4,4.5-2.7c1.2-1.4,2-3,2.4-4.9c0.5-2.2,0.4-4.2-0.3-6.2
				c-0.7-2-1.8-3.5-3.5-4.6C529.5,368.7,526.9,367.8,523.3,367z M523.9,364.3c3.3,0.8,5.9,1,7.6,0.6c1.7-0.4,3.2-1.1,4.3-2.3
				c1.1-1.1,1.9-2.7,2.4-4.8c0.5-2.1,0.4-3.8-0.1-5.3c-0.5-1.5-1.5-2.8-2.9-3.8c-1.4-1-3.8-1.9-7.2-2.7
				C526.7,352.1,525.3,358.2,523.9,364.3z"/>
			<path class="st1" d="M596.6,389.2c-1.6,5.4-3.3,10.7-4.9,16.1c-14.4-2.7-28.7-5.6-43.1-8.7c0.1-0.4,0.2-0.8,0.3-1.3
				c0.5,0.1,1.1,0.2,1.6,0.3c1.4,0.3,2.6,0.3,3.5,0c0.7-0.2,1.3-0.6,1.8-1.4c0.4-0.5,0.8-1.9,1.3-4.3c2.1-10.2,4.3-20.5,6.4-30.7
				c0.5-2.4,0.7-3.9,0.6-4.6c-0.1-0.7-0.5-1.3-1.2-1.9c-0.7-0.6-1.7-1.1-3-1.3c-0.5-0.1-1-0.2-1.6-0.3c0.1-0.4,0.2-0.8,0.3-1.3
				c8.4,1.8,16.8,3.5,25.2,5.2c-0.1,0.4-0.2,0.9-0.3,1.3c-0.7-0.1-1.4-0.3-2.1-0.4c-1.4-0.3-2.5-0.3-3.5,0.1
				c-0.7,0.2-1.3,0.7-1.8,1.4c-0.4,0.5-0.8,1.9-1.3,4.3c-2,9.9-4,19.8-6,29.8c-0.5,2.4-0.7,3.9-0.5,4.7c0.2,0.7,0.6,1.3,1.4,1.8
				c0.6,0.3,2,0.7,4.3,1.2c1.3,0.3,2.7,0.5,4,0.8c2.6,0.5,4.8,0.5,6.7-0.1c1.9-0.5,3.6-1.6,5.2-3.3c1.6-1.6,3.3-4.2,5.1-7.7
				C595.6,389,596.1,389.1,596.6,389.2z"/>
			<path class="st1" d="M629,398.2c-5.7-1-11.4-2-17.1-3c-1,1.4-1.9,2.8-2.9,4.2c-0.9,1.4-1.5,2.6-1.7,3.6c-0.2,1.3,0.1,2.4,1.1,3.2
				c0.6,0.5,2.1,1,4.6,1.7c-0.1,0.4-0.2,0.9-0.2,1.3c-5.4-1-10.8-1.9-16.2-3c0.1-0.4,0.2-0.9,0.2-1.3c1.8,0.1,3.4-0.4,4.7-1.3
				c1.3-0.9,3.1-3,5.4-6.3c8-11.4,16-22.9,23.8-34.4c0.2,0,0.4,0.1,0.7,0.1c3.5,13.8,7.1,27.6,10.8,41.5c1.1,3.9,2.1,6.5,3,7.6
				c0.7,0.8,1.8,1.4,3.2,1.8c-0.1,0.4-0.1,0.9-0.2,1.3c-7.9-1.3-15.7-2.5-23.6-3.9c0.1-0.4,0.1-0.9,0.2-1.3c0.3,0.1,0.6,0.1,1,0.2
				c1.9,0.3,3.3,0.3,4.1-0.1c0.6-0.3,0.9-0.8,1.1-1.5c0.1-0.4,0.1-0.9,0-1.3c0-0.2-0.2-1.1-0.6-2.8C630,402.4,629.5,400.3,629,398.2
				z M628.2,395.5c-1.5-5.8-2.9-11.6-4.4-17.4c-3.4,5-6.8,9.9-10.2,14.9C618.5,393.8,623.3,394.6,628.2,395.5z"/>
			<path class="st1" d="M704.9,374.2c-0.7,5.5-1.4,10.9-2.2,16.4c-0.5-0.1-0.9-0.1-1.4-0.2c-0.5-4.4-2-7.9-4.5-10.6
				c-2.5-2.7-5.5-4.2-9.1-4.7c-3-0.4-5.8,0-8.6,1.4c-2.7,1.3-4.9,3.3-6.4,5.8c-2,3.3-3.3,7.1-4,11.3c-0.6,4.2-0.7,8.1-0.1,11.8
				c0.6,3.6,1.9,6.5,4,8.6c2.1,2.1,5,3.4,8.8,4c3.1,0.4,6,0.2,8.7-0.8c2.7-1,5.7-2.8,9-5.6c-0.2,1.4-0.4,2.7-0.5,4.1
				c-3.1,2.4-6.2,4-9.4,4.9c-3.1,0.8-6.7,1-10.7,0.4c-5.2-0.7-9.7-2.4-13.4-5.1c-3.7-2.6-6.4-6-8-10.1c-1.6-4.1-2.1-8.3-1.4-12.6
				c0.7-4.5,2.6-8.6,5.6-12.2c3-3.7,6.7-6.3,11.1-7.9c4.4-1.6,8.8-2.1,13.4-1.5c3.3,0.5,6.8,1.7,10.3,3.6c2,1.1,3.4,1.7,3.9,1.8
				c0.8,0.1,1.4-0.1,2.1-0.6c0.6-0.5,1.1-1.3,1.4-2.5C704,374,704.4,374.1,704.9,374.2z"/>
			<path class="st1" d="M736.7,397.5c4.9,7.6,9.8,15.2,14.8,22.7c2.1,3.2,4,5.4,5.7,6.6c1.2,0.9,2.5,1.4,3.9,1.5
				c0,0.4-0.1,0.9-0.1,1.3c-8.5-0.8-17-1.8-25.5-2.7c0-0.4,0.1-0.9,0.1-1.3c1.6,0,2.7-0.1,3.2-0.4c0.5-0.3,0.8-0.7,0.8-1.2
				c0.1-1-0.8-2.9-2.7-5.9c-3.2-5-6.4-10-9.6-14.9c-0.7,0.4-1.3,0.8-2,1.3c-0.5,4.3-1,8.6-1.5,12.9c-0.3,2.5-0.3,4-0.1,4.7
				c0.2,0.6,0.7,1.2,1.5,1.8c0.8,0.5,2.1,0.9,3.9,1.1c-0.1,0.4-0.1,0.9-0.2,1.3c-8.2-1-16.5-2-24.7-3c0.1-0.4,0.1-0.9,0.2-1.3
				c0.5,0.1,1.1,0.1,1.6,0.2c1.4,0.2,2.6,0.1,3.5-0.3c0.7-0.2,1.2-0.7,1.7-1.5c0.3-0.5,0.7-2,0.9-4.3c1.3-10.4,2.6-20.7,3.9-31.1
				c0.3-2.4,0.4-3.9,0.2-4.6c-0.2-0.6-0.6-1.2-1.4-1.8c-0.7-0.6-1.8-0.9-3.1-1.1c-0.5-0.1-1.1-0.1-1.6-0.2c0.1-0.4,0.1-0.9,0.2-1.3
				c7.9,1,15.8,2,23.8,2.9c-0.1,0.4-0.1,0.9-0.2,1.3c-1.6-0.2-2.9-0.1-3.8,0.3c-0.7,0.3-1.2,0.7-1.6,1.5c-0.4,0.5-0.7,2-1,4.4
				c-0.6,4.9-1.2,9.8-1.8,14.7c6.5-4,13-8.1,19.5-12.2c2.7-1.7,4.1-3.2,4.2-4.3c0.1-0.9-0.3-1.6-1.3-2.3c-0.5-0.3-1.8-0.6-3.8-0.9
				c0-0.4,0.1-0.9,0.1-1.3c6.2,0.7,12.4,1.3,18.7,2c0,0.4-0.1,0.9-0.1,1.3c-1.7-0.1-3,0.1-4,0.5c-1,0.4-3.4,1.8-7.1,4.2
				C746.9,391.2,741.8,394.4,736.7,397.5z"/>
			<path class="st1" d="M775,384.5c0-0.4,0.1-0.9,0.1-1.3c8.5,0.8,17,1.5,25.5,2.2c0,0.4-0.1,0.9-0.1,1.3c-0.5,0-1-0.1-1.6-0.1
				c-1.4-0.1-2.6,0-3.5,0.5c-0.6,0.3-1.1,0.8-1.6,1.6c-0.3,0.5-0.6,2-0.8,4.4c-0.7,7.8-1.3,15.5-2,23.3c-0.4,4.6-1.1,7.8-2.2,9.8
				c-1.1,2-2.9,3.6-5.5,4.8c-2.5,1.2-5.5,1.6-8.9,1.3c-4.1-0.4-7.4-1.8-9.7-4.1c-2.3-2.3-3.4-4.8-3.1-7.3c0.2-1.6,0.8-2.9,1.9-3.8
				c1.1-0.9,2.4-1.3,3.9-1.2c1.5,0.1,2.6,0.7,3.6,1.7c0.9,1,1.3,2.2,1.2,3.5c-0.1,0.7-0.2,1.2-0.4,1.7c-0.1,0.2-0.6,0.8-1.3,1.7
				c-0.8,0.9-1.1,1.5-1.2,1.9c-0.1,0.6,0.2,1.2,0.8,1.7c0.9,0.7,2,1.2,3.5,1.3c1,0.1,1.9-0.1,2.6-0.5c0.7-0.5,1.3-1.2,1.6-2.3
				c0.4-1.1,0.8-4.1,1.2-9c0.8-8.5,1.5-16.9,2.3-25.4c0.2-2.4,0.2-4,0-4.6c-0.2-0.6-0.7-1.2-1.4-1.7c-0.7-0.5-1.8-0.9-3.1-1
				C776.3,384.6,775.6,384.6,775,384.5z"/>
			<path class="st1" d="M828.9,421.7c-5.7-0.4-11.5-0.8-17.2-1.2c-0.8,1.5-1.6,3-2.4,4.5c-0.8,1.5-1.2,2.7-1.3,3.7
				c-0.1,1.3,0.4,2.4,1.4,3.1c0.6,0.4,2.2,0.8,4.8,1.2c0,0.4-0.1,0.9-0.1,1.3c-5.4-0.4-10.9-0.8-16.3-1.2c0-0.4,0.1-0.9,0.1-1.3
				c1.8-0.1,3.3-0.7,4.5-1.8c1.2-1.1,2.8-3.3,4.7-6.8c6.8-12.2,13.5-24.4,20-36.7c0.2,0,0.4,0,0.7,0c4.9,13.4,9.9,26.8,15.1,40.1
				c1.5,3.8,2.7,6.2,3.8,7.2c0.8,0.8,1.9,1.3,3.4,1.5c0,0.4,0,0.9-0.1,1.3c-7.9-0.4-15.9-0.9-23.8-1.4c0-0.4,0.1-0.9,0.1-1.3
				c0.3,0,0.7,0,1,0.1c1.9,0.1,3.3,0,4.1-0.5c0.6-0.3,0.9-0.9,0.9-1.6c0-0.4,0-0.9-0.1-1.3c0-0.2-0.3-1.1-0.9-2.7
				C830.4,425.8,829.6,423.7,828.9,421.7z M827.8,419c-2.1-5.6-4.1-11.2-6.1-16.9c-2.8,5.3-5.7,10.6-8.6,15.8
				C818,418.4,822.9,418.7,827.8,419z"/>
			<path class="st1" d="M901.7,389.8c-0.1,5.5-0.3,11-0.4,16.5c-0.5,0-0.9,0-1.4,0c-0.9-4.3-2.8-7.7-5.5-10.1
				c-2.8-2.4-5.9-3.6-9.5-3.8c-3-0.1-5.8,0.6-8.4,2.2c-2.6,1.6-4.5,3.8-5.8,6.5c-1.6,3.5-2.6,7.4-2.8,11.7
				c-0.2,4.3,0.2,8.2,1.1,11.7c1,3.5,2.6,6.3,4.9,8.2c2.3,1.9,5.3,2.9,9.1,3c3.1,0.1,6-0.4,8.6-1.7c2.6-1.2,5.4-3.4,8.3-6.5
				c0,1.4-0.1,2.7-0.1,4.1c-2.8,2.7-5.8,4.6-8.8,5.8c-3,1.2-6.5,1.7-10.5,1.5c-5.3-0.2-9.9-1.4-13.9-3.6c-4-2.2-7-5.3-9-9.2
				c-2-3.9-2.9-8-2.7-12.3c0.2-4.5,1.7-8.8,4.3-12.7c2.6-4,6-7,10.2-9c4.2-2.1,8.5-3,13.1-2.8c3.4,0.1,6.9,1,10.6,2.5
				c2.1,0.9,3.5,1.4,4.1,1.4c0.8,0,1.4-0.2,2-0.8c0.6-0.5,1-1.4,1.2-2.6C900.8,389.8,901.2,389.8,901.7,389.8z"/>
			<path class="st1" d="M935.7,409.8c5.6,7,11.3,14.1,17.1,21.1c2.4,3,4.5,5,6.3,6c1.3,0.7,2.6,1.1,4.1,1.1c0,0.4,0,0.9,0,1.3
				c-8.5,0-17.1,0-25.6,0c0-0.4,0-0.9,0-1.3c1.6-0.1,2.7-0.4,3.1-0.7c0.5-0.3,0.7-0.8,0.7-1.3c0-1-1.1-2.8-3.3-5.6
				c-3.7-4.6-7.4-9.2-11.1-13.9c-0.6,0.5-1.2,1-1.8,1.5c-0.1,4.3-0.1,8.7-0.2,13c0,2.5,0.1,4,0.4,4.6c0.3,0.6,0.8,1.1,1.6,1.6
				c0.8,0.4,2.1,0.7,3.9,0.7c0,0.4,0,0.9,0,1.3c-8.3-0.1-16.6-0.2-24.8-0.4c0-0.4,0-0.9,0-1.3c0.5,0,1.1,0,1.6,0
				c1.4,0,2.6-0.2,3.5-0.7c0.6-0.3,1.1-0.9,1.5-1.7c0.3-0.6,0.4-2,0.5-4.4c0.2-10.5,0.4-20.9,0.6-31.4c0.1-2.4,0-4-0.3-4.6
				c-0.2-0.6-0.8-1.2-1.5-1.6c-0.8-0.5-1.8-0.7-3.2-0.8c-0.5,0-1.1,0-1.6,0c0-0.4,0-0.9,0-1.3c8,0.2,15.9,0.3,23.9,0.4
				c0,0.4,0,0.9,0,1.3c-1.6,0-2.9,0.2-3.7,0.7c-0.6,0.3-1.1,0.9-1.5,1.6c-0.3,0.6-0.5,2.1-0.5,4.5c-0.1,4.9-0.1,9.9-0.2,14.8
				c6.1-4.7,12.1-9.4,18.1-14.1c2.5-2,3.7-3.6,3.8-4.8c0-0.9-0.5-1.6-1.5-2.1c-0.5-0.3-1.8-0.4-3.9-0.5c0-0.4,0-0.9,0-1.3
				c6.2,0,12.5,0,18.7,0c0,0.4,0,0.9,0,1.3c-1.7,0.1-3,0.4-4,0.9c-1,0.5-3.2,2.1-6.6,4.9C945.2,402.4,940.5,406.1,935.7,409.8z"/>
			<path class="st1" d="M1000.4,417.1c0.1,4.4,0.2,8.8,0.3,13.2c0.1,2.6,0.3,4.2,0.6,4.9c0.3,0.7,0.9,1.2,1.8,1.6
				c0.8,0.4,2.4,0.5,4.6,0.5c0,0.4,0,0.9,0,1.3c-8.3,0.2-16.7,0.4-25,0.5c0-0.4,0-0.9,0-1.3c2.3,0,3.8-0.3,4.6-0.7
				c0.8-0.4,1.4-1,1.7-1.6c0.3-0.7,0.4-2.3,0.4-4.9c-0.2-10.3-0.4-20.6-0.6-30.9c0-2.6-0.2-4.2-0.6-4.9c-0.3-0.7-0.9-1.2-1.7-1.6
				c-0.8-0.4-2.3-0.6-4.5-0.5c0-0.4,0-0.9,0-1.3c7-0.1,14-0.3,20.9-0.4c6.9-0.2,11.9,0.9,15,3.2c3.1,2.3,4.7,5.3,4.8,9
				c0.1,3.1-0.8,5.8-2.6,8c-1.9,2.3-4.5,3.9-8,4.8C1009.9,416.5,1006,416.9,1000.4,417.1z M999.9,393.7c0.2,6.9,0.3,13.7,0.5,20.6
				c0.8,0,1.4,0,1.8,0c2.9-0.1,5.1-1,6.7-2.7c1.5-1.7,2.2-4.4,2.1-8c-0.1-3.5-1-6.1-2.6-7.7c-1.6-1.6-4-2.3-7.1-2.3
				C1000.8,393.7,1000.3,393.7,999.9,393.7z"/>
			<path class="st1" d="M1056.5,422.9c-5.8,0.3-11.5,0.6-17.3,0.9c-0.6,1.6-1.2,3.2-1.9,4.7c-0.6,1.6-0.9,2.9-0.8,3.9
				c0.1,1.3,0.7,2.3,1.8,2.9c0.7,0.3,2.3,0.6,4.9,0.6c0,0.4,0,0.9,0.1,1.3c-5.5,0.3-10.9,0.5-16.4,0.7c0-0.4,0-0.9,0-1.3
				c1.8-0.3,3.2-1.1,4.3-2.3c1.1-1.2,2.4-3.7,3.9-7.4c5.3-12.9,10.5-25.9,15.5-38.8c0.2,0,0.4,0,0.7,0c6.4,12.7,13,25.4,19.7,38
				c1.9,3.6,3.4,5.8,4.6,6.7c0.9,0.7,2.1,1,3.6,1c0,0.4,0.1,0.9,0.1,1.3c-7.9,0.5-15.9,1-23.8,1.4c0-0.4,0-0.9-0.1-1.3
				c0.3,0,0.7,0,1-0.1c1.9-0.1,3.2-0.4,4-1c0.5-0.4,0.7-1,0.7-1.7c0-0.4-0.1-0.8-0.3-1.3c-0.1-0.2-0.5-1.1-1.2-2.6
				C1058.4,426.8,1057.5,424.8,1056.5,422.9z M1055.1,420.4c-2.7-5.3-5.4-10.7-8.1-16c-2.2,5.6-4.4,11.2-6.7,16.8
				C1045.3,420.9,1050.2,420.6,1055.1,420.4z"/>
			<path class="st1" d="M1128.3,383.5c0,0.4,0.1,0.9,0.1,1.3c-1.6,0.4-2.7,0.9-3.5,1.7c-1.1,1.1-2.7,3.9-4.9,8.5c-3,6-6,12.1-9,18.1
				c0.3,3.8,0.6,7.7,0.9,11.5c0.2,2.5,0.5,4,0.8,4.5c0.3,0.6,0.9,1.1,1.7,1.4c0.8,0.4,1.9,0.5,3.2,0.4c0.9-0.1,1.8-0.2,2.8-0.2
				c0,0.4,0.1,0.9,0.1,1.3c-9.2,0.8-18.4,1.5-27.6,2.2c0-0.4-0.1-0.9-0.1-1.3c0.9-0.1,1.7-0.1,2.6-0.2c1.4-0.1,2.6-0.4,3.4-1
				c0.6-0.4,1.1-1,1.4-1.8c0.2-0.6,0.2-2.1,0.1-4.4c-0.2-3.2-0.5-6.4-0.7-9.5c-4.3-6.5-8.6-13-12.9-19.5c-2.5-3.9-4.3-6.1-5.2-6.8
				c-1-0.7-2.2-0.9-3.8-0.9c0-0.4-0.1-0.9-0.1-1.3c7.7-0.5,15.3-1.1,23-1.7c0,0.4,0.1,0.9,0.1,1.3c-0.3,0-0.7,0.1-1,0.1
				c-1.4,0.1-2.3,0.4-2.9,0.8c-0.5,0.4-0.8,0.9-0.7,1.3c0.1,0.8,1.2,2.9,3.3,6.1c3.3,5,6.6,10,10,15c2.5-5,5-10,7.5-15.1
				c1.9-3.7,2.7-6.1,2.6-7.3c-0.1-0.6-0.4-1.1-1.1-1.5c-0.9-0.5-2.4-0.7-4.5-0.7c0-0.4-0.1-0.9-0.1-1.3
				C1118.5,384.3,1123.4,383.9,1128.3,383.5z"/>
			<path class="st1" d="M1162.9,378.8c0.7,5.2,1.4,10.5,2.2,15.7c-0.5,0.1-1,0.1-1.5,0.2c-1.1-3.9-3.2-6.9-6.1-9
				c-2.9-2.1-6-3-9.1-2.7c-2.4,0.2-4.2,1.1-5.5,2.5c-1.3,1.4-1.8,2.9-1.7,4.6c0.1,1,0.4,2,1,2.7c0.8,1,2,2,3.6,2.9
				c1.2,0.7,3.9,1.8,8.1,3.3c5.9,2.1,10,4.3,12.3,6.5c2.2,2.2,3.5,4.9,3.9,8c0.4,4-0.8,7.5-3.6,10.8c-2.9,3.2-6.8,5.1-11.7,5.6
				c-1.5,0.2-3,0.2-4.4,0c-1.4-0.2-3.2-0.6-5.3-1.2c-1.2-0.4-2.2-0.5-2.9-0.4c-0.6,0.1-1.3,0.4-1.9,0.9c-0.7,0.5-1.2,1.3-1.5,2.3
				c-0.4,0-0.9,0.1-1.3,0.1c-0.6-6-1.1-11.9-1.7-17.9c0.4,0,0.9-0.1,1.3-0.1c1.5,4.9,3.9,8.6,7.2,10.9c3.3,2.3,6.7,3.3,10.2,3
				c2.7-0.3,4.8-1.2,6.2-2.8c1.4-1.6,2.1-3.3,1.9-5.2c-0.1-1.1-0.5-2.2-1.3-3.2c-0.7-1-1.8-1.9-3.1-2.7c-1.3-0.8-3.7-1.8-7-3
				c-4.6-1.7-8-3.2-10.1-4.5c-2.1-1.3-3.7-2.8-4.9-4.6c-1.2-1.7-1.9-3.7-2.1-5.9c-0.4-3.8,0.7-7.1,3.3-10.1
				c2.5-2.9,5.9-4.6,10.2-5.1c1.6-0.2,3.1-0.1,4.6,0.1c1.1,0.2,2.5,0.5,4.2,1.1c1.7,0.6,2.8,0.8,3.5,0.8c0.6-0.1,1.1-0.3,1.4-0.7
				c0.3-0.4,0.5-1.3,0.7-2.8C1162.2,378.9,1162.6,378.8,1162.9,378.8z"/>
			<path class="st1" d="M1201.1,399.2c-0.1-0.4-0.1-0.8-0.2-1.2c2.6-1.1,4.4-2.1,5.3-2.9c1-0.8,1.7-1.9,2.3-3.4
				c0.6-1.5,0.8-2.9,0.6-4.3c-0.3-1.9-1.2-3.5-2.8-4.7c-1.6-1.2-3.5-1.6-5.6-1.4c-3.3,0.4-5.9,2.5-7.7,6.2c-0.5-0.1-0.9-0.2-1.4-0.3
				c1.2-4.1,3-7.3,5.4-9.6c2.4-2.3,5.2-3.7,8.4-4.1c3.3-0.4,6.2,0.2,8.6,1.9c2.4,1.7,3.8,3.9,4.2,6.5c0.2,1.7,0,3.5-0.8,5.2
				c-0.8,1.8-2.2,3.4-4.1,4.9c3,0.9,5.3,2.3,7,4c1.7,1.7,2.8,4.1,3.2,7c0.7,4.9-0.5,9.4-3.7,13.3c-3.2,4-7.9,6.4-14.1,7.2
				c-4.1,0.5-7.2,0.3-9.3-0.8c-1.5-0.8-2.3-1.9-2.5-3.3c-0.1-1.1,0.1-2,0.8-2.9c0.7-0.9,1.6-1.3,2.6-1.5c0.8-0.1,1.6,0,2.3,0.2
				c0.4,0.1,1.9,1,4.5,2.5c2.6,1.5,4.9,2.2,6.9,1.9c1.8-0.2,3.2-1.1,4.3-2.7c1.1-1.5,1.5-3.3,1.2-5.4c-0.4-3.2-2-6-4.6-8.3
				C1209.2,401.1,1205.6,399.7,1201.1,399.2z"/>
			<path class="st1" d="M1286.6,361.9c0.8,4.2,1.5,8.5,2.3,12.7c-0.4,0.1-0.8,0.2-1.3,0.2c-1.3-2.8-2.5-4.8-3.6-5.9
				c-1.1-1.1-2.6-1.9-4.3-2.4c-1-0.3-2.6-0.2-4.8,0.2c-1.2,0.2-2.4,0.4-3.5,0.6c2.1,12.1,4.1,24.2,6.2,36.3c0.4,2.4,0.8,3.9,1.2,4.4
				c0.4,0.6,1,1,1.9,1.3c0.9,0.3,2,0.4,3.4,0.1c0.5-0.1,1.1-0.2,1.6-0.3c0.1,0.4,0.1,0.9,0.2,1.3c-8.5,1.5-17,2.9-25.5,4.3
				c-0.1-0.4-0.1-0.9-0.2-1.3c0.5-0.1,1.1-0.2,1.6-0.3c1.4-0.2,2.5-0.7,3.3-1.3c0.6-0.4,1-1.1,1.2-1.9c0.2-0.6,0.1-2.1-0.3-4.4
				c-2-12.1-4-24.2-6-36.3c-1.1,0.2-2.3,0.4-3.4,0.6c-3.2,0.5-5.4,1.6-6.7,3.1c-1.7,2.2-2.6,5.1-2.6,8.6c-0.4,0.1-0.9,0.1-1.3,0.2
				c-0.7-4.2-1.3-8.5-2-12.7C1258.2,366.9,1272.4,364.5,1286.6,361.9z"/>
			<path class="st1" d="M1316.8,355.6c7.5-1.8,14-0.8,19.7,2.8c5.7,3.6,9.3,8.9,10.7,15.8c1.2,5.9,0.6,11.5-2.1,16.7
				c-3.5,7-9.6,11.3-18.4,13c-8.7,1.7-16.1,0.1-21.9-4.7c-4.6-3.8-7.4-8.8-8.6-15c-1.3-7,0.1-13.2,4-18.7
				C1304.3,360,1309.7,356.7,1316.8,355.6z M1317.6,357.7c-4.3,0.8-7.2,3.7-8.6,8.5c-1.2,3.9-1.1,9.3,0.2,16
				c1.5,8,4.1,13.6,7.7,16.9c2.5,2.3,5.6,3.1,9.3,2.4c2.5-0.5,4.4-1.5,5.8-2.9c1.8-1.9,3-4.6,3.5-8c0.5-3.5,0.2-7.8-0.8-13
				c-1.3-6.2-2.8-10.7-4.6-13.5c-1.8-2.8-3.7-4.7-5.8-5.6C1322.2,357.5,1320,357.3,1317.6,357.7z"/>
			<path class="st1" d="M1403.2,386.3c-9.5,2.3-18.9,4.4-28.4,6.6c-0.1-0.3-0.1-0.5-0.2-0.8c6.5-11.9,10.2-19.9,11.2-23.7
				c1-3.9,1.2-7.5,0.4-10.7c-0.6-2.4-1.8-4.2-3.7-5.4c-1.9-1.2-3.9-1.6-6.1-1.1c-3.6,0.8-6,3.2-7.2,7.2c-0.5-0.1-0.9-0.1-1.4-0.2
				c0.3-4.7,1.5-8.3,3.5-11c2.1-2.7,4.8-4.4,8.1-5.2c2.4-0.6,4.7-0.5,6.9,0.1c2.2,0.6,4.1,1.8,5.7,3.4c1.6,1.6,2.6,3.3,2.9,5
				c0.7,3,0.6,6.3-0.4,9.9c-1.4,4.8-5.1,11.9-11.4,21.3c3.5-0.8,6.9-1.6,10.4-2.4c2.5-0.6,4.2-1.1,4.9-1.5c0.7-0.4,1.3-0.9,1.6-1.5
				c0.4-0.6,0.8-1.8,1.2-3.6c0.4-0.1,0.8-0.2,1.3-0.3C1402.9,376.9,1403,381.6,1403.2,386.3z"/>
		</g>
	</g>
	<g>
		<g>
			<path class="st2" d="M441.4,428.4c0.1-0.3,0.1-0.5,0.2-0.8c0.4,0.1,0.7,0.2,1.1,0.3c1.3,0.3,2.2,0.1,3-0.5c0.4-0.4,0.8-1.4,1.2-3
				c1.5-6.2,3-12.5,4.5-18.7c0.4-1.8,0.5-3,0.2-3.5c-0.4-0.8-1.2-1.3-2.3-1.5c-0.4-0.1-0.7-0.2-1.1-0.3c0.1-0.3,0.1-0.5,0.2-0.8
				c4,1,8,1.9,12,2.8c4.4,1,7.6,2.3,9.7,3.8c2.1,1.5,3.5,3.6,4.4,6.2c0.9,2.6,1,5.4,0.3,8.4c-0.9,4-2.9,7.1-6.1,9.3
				c-3.5,2.4-8.2,2.9-14,1.6C450.3,430.5,445.9,429.5,441.4,428.4z M450.4,428.4c1.8,0.8,3.3,1.4,4.5,1.7c3.4,0.8,6.5,0.3,9.3-1.5
				c2.8-1.8,4.6-4.7,5.5-8.7c0.9-4,0.5-7.4-1.2-10.3c-1.7-2.8-4.3-4.6-7.7-5.4c-1.3-0.3-2.8-0.4-4.6-0.4
				C454.3,411.9,452.4,420.1,450.4,428.4z"/>
			<path class="st2" d="M488.7,410.4c-0.8,3.8-1.7,7.7-2.5,11.5c2.2,0.5,4.3,1,6.5,1.4c1.7,0.4,2.9,0.4,3.6,0c0.9-0.5,1.6-1.6,2-3.2
				c0.3,0.1,0.5,0.1,0.8,0.2c-0.7,3.4-1.4,6.8-2.2,10.1c-0.3-0.1-0.5-0.1-0.8-0.2c0.1-1.5,0.1-2.4,0-2.9c-0.2-0.6-0.5-1-1-1.5
				c-0.5-0.4-1.4-0.8-2.7-1c-2.2-0.5-4.4-0.9-6.5-1.4c-0.7,3.2-1.4,6.4-2.1,9.6c-0.3,1.3-0.4,2.1-0.3,2.4c0.1,0.3,0.2,0.6,0.5,0.8
				c0.3,0.2,0.8,0.4,1.6,0.6c1.7,0.4,3.4,0.7,5.1,1.1c1.7,0.4,2.9,0.5,3.8,0.4c0.8-0.1,1.6-0.4,2.5-0.9c1.1-0.7,2.3-1.8,3.6-3.4
				c0.3,0.1,0.6,0.1,0.9,0.2c-1.4,2.3-2.7,4.5-4.1,6.8c-7.7-1.6-15.4-3.3-23-5c0.1-0.3,0.1-0.5,0.2-0.8c0.4,0.1,0.7,0.2,1.1,0.2
				c0.7,0.2,1.4,0.1,2.1,0c0.5-0.1,0.9-0.4,1.2-0.8c0.3-0.4,0.6-1.3,0.9-2.8c1.4-6.3,2.8-12.6,4.2-18.9c0.4-1.8,0.5-3,0.2-3.5
				c-0.4-0.7-1.2-1.2-2.4-1.4c-0.3-0.1-0.7-0.2-1-0.2c0.1-0.3,0.1-0.5,0.2-0.8c7.6,1.7,15.1,3.3,22.7,5c-0.3,2.2-0.7,4.3-1,6.5
				c-0.3-0.1-0.6-0.1-0.9-0.2c0-1.6-0.1-2.7-0.3-3.4c-0.2-0.7-0.7-1.2-1.4-1.7c-0.5-0.3-1.5-0.7-3-1
				C494.1,411.6,491.4,411,488.7,410.4z"/>
			<path class="st2" d="M523.5,436.3c-3.9-0.8-7.7-1.6-11.6-2.3c-1,1.4-2,2.8-3,4.2c-0.7,1-1.2,1.8-1.3,2.4c-0.1,0.4,0,0.9,0.4,1.3
				c0.4,0.4,1.3,0.8,2.7,1.2c-0.1,0.3-0.1,0.5-0.2,0.8c-3.1-0.6-6.3-1.3-9.4-2c0.1-0.3,0.1-0.5,0.2-0.8c1.3,0,2.2-0.1,2.6-0.3
				c0.9-0.5,2-1.8,3.4-3.7c5.2-7.3,10.3-14.6,15.4-21.9c0.3,0.1,0.5,0.1,0.8,0.2c1.8,8.8,3.6,17.6,5.5,26.4c0.5,2.1,1,3.5,1.5,4.3
				c0.6,0.7,1.5,1.2,2.7,1.5c-0.1,0.3-0.1,0.5-0.2,0.8c-3.9-0.8-7.9-1.5-11.8-2.3c0.1-0.3,0.1-0.5,0.2-0.8c1.2,0.2,2.1,0.1,2.5-0.1
				c0.5-0.2,0.8-0.6,0.9-1.1c0.1-0.6,0-1.7-0.3-3.2C524.1,439.3,523.8,437.8,523.5,436.3z M523.2,434.5c-0.9-4.3-1.8-8.5-2.7-12.8
				c-2.5,3.6-5,7.2-7.6,10.7C516.3,433.2,519.7,433.9,523.2,434.5z"/>
			<path class="st2" d="M561,445.2c0.2,0.1,0.5,0.2,0.7,0.3c-1.3,2.5-2.7,5-4,7.5c-7.8-1.4-15.5-2.9-23.3-4.4
				c0.1-0.3,0.1-0.5,0.2-0.8c0.4,0.1,0.8,0.1,1.1,0.2c1.3,0.2,2.3,0,3-0.7c0.4-0.4,0.8-1.4,1.1-3.1c1.2-6.3,2.4-12.6,3.6-18.9
				c0.4-1.8,0.4-3,0-3.5c-0.4-0.7-1.2-1.2-2.4-1.4c-0.4-0.1-0.7-0.1-1.1-0.2c0.1-0.3,0.1-0.5,0.2-0.8c4.5,0.9,8.9,1.7,13.4,2.6
				c0,0.3-0.1,0.5-0.1,0.8c-1.6-0.3-2.7-0.4-3.4-0.2c-0.7,0.2-1.2,0.5-1.5,0.9c-0.3,0.4-0.6,1.5-1,3.2c-1.2,6.1-2.3,12.3-3.5,18.4
				c-0.2,1.2-0.3,2-0.1,2.5c0.1,0.3,0.4,0.6,0.7,0.8c0.3,0.2,1.5,0.5,3.4,0.9c0.7,0.1,1.5,0.3,2.2,0.4c2.3,0.4,3.9,0.6,4.9,0.4
				c1-0.2,1.9-0.6,2.9-1.3C558.9,448,559.9,446.9,561,445.2z"/>
			<path class="st2" d="M575.6,427.5c-0.7,3.9-1.4,7.7-2,11.6c2.2,0.4,4.4,0.8,6.6,1.1c1.7,0.3,2.9,0.2,3.5-0.2
				c0.9-0.5,1.5-1.6,1.9-3.3c0.3,0,0.5,0.1,0.8,0.1c-0.6,3.4-1.2,6.8-1.7,10.2c-0.3,0-0.5-0.1-0.8-0.1c0-1.5,0-2.4-0.1-2.9
				c-0.2-0.6-0.5-1-1.1-1.4c-0.6-0.4-1.5-0.7-2.7-0.9c-2.2-0.4-4.4-0.8-6.6-1.1c-0.6,3.2-1.1,6.4-1.7,9.7c-0.2,1.3-0.3,2.1-0.2,2.4
				c0.1,0.3,0.2,0.6,0.5,0.8c0.3,0.2,0.8,0.4,1.6,0.5c1.7,0.3,3.4,0.6,5.1,0.9c1.7,0.3,3,0.4,3.8,0.3c0.8-0.1,1.6-0.4,2.4-1
				c1.1-0.7,2.2-1.9,3.5-3.6c0.3,0,0.6,0.1,0.9,0.1c-1.3,2.3-2.6,4.6-3.8,6.9c-7.7-1.3-15.5-2.7-23.2-4c0-0.3,0.1-0.5,0.1-0.8
				c0.4,0.1,0.7,0.1,1.1,0.2c0.7,0.1,1.4,0.1,2.1-0.1c0.5-0.1,0.9-0.4,1.1-0.9c0.3-0.4,0.5-1.4,0.8-2.8c1.1-6.4,2.3-12.7,3.4-19.1
				c0.3-1.9,0.3-3,0-3.5c-0.4-0.7-1.2-1.1-2.5-1.3c-0.4-0.1-0.7-0.1-1.1-0.2c0-0.3,0.1-0.5,0.1-0.8c7.6,1.4,15.2,2.7,22.9,4
				c-0.3,2.2-0.5,4.3-0.8,6.5c-0.3,0-0.6-0.1-0.9-0.1c0-1.6-0.2-2.7-0.5-3.4c-0.3-0.6-0.8-1.2-1.4-1.6c-0.5-0.3-1.6-0.6-3-0.9
				C581,428.5,578.3,428,575.6,427.5z"/>
			<path class="st2" d="M619.7,463.3c-2.7-0.4-5.4-0.8-8.1-1.2c-2.7-5.1-5.4-10.2-8-15.4c-0.8-0.1-1.4-0.2-1.8-0.3
				c-0.2,0-0.4-0.1-0.6-0.1c-0.2,0-0.4-0.1-0.7-0.1c-0.5,2.8-0.9,5.7-1.4,8.5c-0.3,1.9-0.3,3,0.1,3.5c0.5,0.7,1.3,1.2,2.4,1.4
				c0.4,0.1,0.8,0.1,1.2,0.2c0,0.3-0.1,0.5-0.1,0.8c-4.3-0.7-8.6-1.4-12.9-2.1c0-0.3,0.1-0.5,0.1-0.8c0.4,0.1,0.8,0.1,1.1,0.2
				c1.3,0.2,2.3,0,2.9-0.8c0.4-0.4,0.7-1.4,1-3.1c1-6.3,2.1-12.7,3.1-19c0.3-1.9,0.3-3,0-3.5c-0.5-0.7-1.3-1.2-2.4-1.4
				c-0.4-0.1-0.7-0.1-1.1-0.2c0-0.3,0.1-0.5,0.1-0.8c3.6,0.6,7.2,1.2,10.8,1.8c3.2,0.5,5.4,1.1,6.9,1.8c1.4,0.7,2.6,1.7,3.4,3.1
				c0.9,1.4,1.2,2.9,0.9,4.6c-0.3,1.8-1.1,3.3-2.5,4.4c-1.4,1.1-3.4,1.8-6,1.9c1.6,3.1,3.2,6.3,4.9,9.4c1.1,2.2,2.1,3.6,3.1,4.4
				c0.9,0.8,2.2,1.4,3.8,1.8C619.8,462.8,619.8,463.1,619.7,463.3z M600.8,444.9c0.3,0,0.5,0.1,0.7,0.1c0.2,0,0.4,0.1,0.5,0.1
				c2.9,0.5,5.1,0.2,6.7-0.8c1.6-1,2.6-2.4,2.9-4.3c0.3-1.8-0.1-3.4-1-4.8c-1-1.3-2.4-2.2-4.3-2.5c-0.8-0.1-2-0.2-3.5-0.1
				C602.1,436.7,601.4,440.8,600.8,444.9z"/>
			<path class="st2" d="M649.4,467.6c-2.7-8.8-5.5-17.6-8.1-26.5c-0.9,6.6-1.9,13.1-2.8,19.7c-0.3,1.8-0.2,3,0.1,3.5
				c0.5,0.7,1.3,1.1,2.5,1.3c0.4,0.1,0.7,0.1,1.1,0.2c0,0.3-0.1,0.5-0.1,0.8c-3.5-0.5-7-1-10.5-1.5c0-0.3,0.1-0.5,0.1-0.8
				c0.4,0.1,0.7,0.1,1.1,0.2c1.3,0.2,2.2-0.1,2.9-0.7c0.4-0.4,0.7-1.5,0.9-3.1c0.9-6.4,1.9-12.8,2.8-19.3c0.2-1.3,0.2-2.3,0-2.9
				c-0.1-0.4-0.5-0.9-1-1.2c-0.5-0.4-1.4-0.6-2.6-0.8c0-0.3,0.1-0.5,0.1-0.8c2.8,0.4,5.6,0.8,8.4,1.2c2.5,8.2,5.1,16.4,7.6,24.6
				c4.6-7.2,9.2-14.4,13.8-21.7c2.8,0.4,5.6,0.7,8.4,1.1c0,0.3-0.1,0.5-0.1,0.8c-0.3,0-0.7-0.1-1-0.1c-1.3-0.2-2.2,0.1-2.9,0.8
				c-0.4,0.4-0.7,1.5-0.9,3.1c-0.8,6.4-1.7,12.9-2.5,19.3c-0.2,1.8-0.2,3,0.2,3.5c0.5,0.7,1.3,1.1,2.5,1.3c0.3,0,0.7,0.1,1,0.1
				c0,0.3-0.1,0.5-0.1,0.8c-4.3-0.5-8.6-1.1-12.8-1.7c0-0.3,0.1-0.5,0.1-0.8c0.4,0,0.7,0.1,1.1,0.1c1.3,0.2,2.2-0.1,2.9-0.8
				c0.4-0.4,0.7-1.5,0.9-3.1c0.9-6.6,1.7-13.2,2.6-19.7c-4.9,7.8-9.9,15.5-14.9,23.3C649.9,467.7,649.6,467.7,649.4,467.6z"/>
			<path class="st2" d="M696.5,444.4c0-0.3,0.1-0.5,0.1-0.8c3.5,0.4,7,0.8,10.6,1.2c0,0.3-0.1,0.5-0.1,0.8c-0.4,0-0.7-0.1-1.1-0.1
				c-1.2-0.1-2.1,0.3-2.9,1.2c-0.4,0.4-0.6,1.4-0.8,3.1c-0.5,4-0.9,8-1.4,12c-0.3,3-0.9,5.2-1.7,6.8c-0.8,1.6-2.1,2.8-4,3.8
				c-1.9,1-4.4,1.3-7.4,0.9c-3.3-0.4-5.7-1.3-7.3-2.6c-1.6-1.3-2.6-3-3.1-5c-0.3-1.4-0.2-3.8,0.2-7.4c0.5-3.9,1-7.7,1.4-11.6
				c0.2-1.8,0.1-3-0.3-3.7c-0.4-0.6-1.2-1-2.3-1.2c-0.4,0-0.7-0.1-1.1-0.1c0-0.3,0.1-0.5,0.1-0.8c4.3,0.5,8.6,1.1,12.9,1.6
				c0,0.3-0.1,0.5-0.1,0.8c-0.4,0-0.8-0.1-1.1-0.1c-1.2-0.1-2.2,0.1-2.8,0.8c-0.4,0.5-0.7,1.5-1,3.2c-0.5,4.3-1.1,8.6-1.6,12.9
				c-0.1,1.1-0.2,2.5-0.2,4c0,1.5,0.3,2.7,0.7,3.6c0.5,0.9,1.2,1.7,2.2,2.3c1,0.7,2.3,1.1,3.8,1.3c2,0.2,3.8,0,5.5-0.6
				c1.7-0.7,2.9-1.6,3.6-2.9c0.7-1.3,1.3-3.4,1.6-6.6c0.5-4,0.9-8,1.4-12c0.2-1.8,0.1-3-0.2-3.5c-0.5-0.7-1.3-1.1-2.4-1.3
				C697.3,444.5,696.9,444.5,696.5,444.4z"/>
			<path class="st2" d="M728.4,446.4c-0.3,3.4-0.7,6.8-1,10.3c-0.3,0-0.5-0.1-0.8-0.1c-0.1-2-0.4-3.6-0.9-4.8
				c-0.6-1.2-1.4-2.3-2.6-3.1c-1.2-0.8-2.5-1.3-3.8-1.4c-1.5-0.2-2.8,0.2-3.9,1c-1.1,0.8-1.7,1.8-1.8,3c-0.1,0.9,0.1,1.8,0.7,2.6
				c0.8,1.2,2.8,2.9,6.1,5.1c2.7,1.8,4.5,3.1,5.4,4c0.9,0.9,1.6,1.9,2.1,3.1c0.4,1.1,0.6,2.3,0.5,3.5c-0.2,2.2-1.3,4.1-3.3,5.5
				c-1.9,1.4-4.3,2-7.1,1.7c-0.9-0.1-1.7-0.2-2.5-0.5c-0.5-0.1-1.4-0.5-2.8-1.1c-1.4-0.6-2.3-0.9-2.7-1c-0.4,0-0.7,0-0.9,0.2
				c-0.2,0.2-0.5,0.6-0.6,1.3c-0.3,0-0.6-0.1-0.8-0.1c0.4-3.4,0.7-6.8,1.1-10.2c0.3,0,0.5,0.1,0.8,0.1c0.2,2.2,0.5,3.8,1,4.9
				c0.5,1.1,1.4,2.1,2.7,3c1.3,0.8,2.7,1.4,4.3,1.5c1.9,0.2,3.4-0.1,4.6-1c1.2-0.8,1.8-1.9,2-3.2c0.1-0.7-0.1-1.5-0.4-2.3
				c-0.3-0.8-0.9-1.5-1.7-2.3c-0.5-0.5-2-1.6-4.4-3.3c-2.4-1.7-4.1-3-5.1-4c-1-1-1.7-2-2.2-3.1c-0.4-1.1-0.6-2.2-0.5-3.5
				c0.2-2.1,1.3-3.9,3.1-5.2c1.8-1.4,4-1.9,6.5-1.6c1.6,0.2,3.2,0.7,4.9,1.7c0.8,0.4,1.3,0.7,1.7,0.7c0.4,0,0.7,0,1-0.2
				c0.3-0.2,0.5-0.6,0.7-1.3C727.9,446.4,728.1,446.4,728.4,446.4z"/>
			<path class="st2" d="M758.9,450c-0.1,2.3-0.2,4.7-0.3,7c-0.3,0-0.6,0-0.8-0.1c-0.1-1.2-0.2-2.1-0.4-2.7c-0.4-0.9-0.9-1.6-1.7-2
				c-0.7-0.5-1.7-0.8-2.9-0.9c-1.4-0.1-2.8-0.3-4.2-0.4c-0.7,7.6-1.4,15.1-2.1,22.7c-0.2,1.8-0.1,3,0.3,3.5c0.5,0.7,1.4,1.1,2.5,1.2
				c0.4,0,0.7,0.1,1.1,0.1c0,0.3,0,0.5-0.1,0.8c-4.3-0.4-8.6-0.8-12.9-1.2c0-0.3,0.1-0.5,0.1-0.8c0.4,0,0.7,0.1,1.1,0.1
				c1.3,0.1,2.2-0.2,2.8-0.9c0.4-0.4,0.6-1.5,0.8-3.1c0.7-7.6,1.4-15.1,2.1-22.7c-1.2-0.1-2.4-0.2-3.6-0.3c-1.4-0.1-2.4-0.1-3,0
				c-0.8,0.2-1.5,0.7-2.1,1.4c-0.6,0.7-1.1,1.8-1.3,3.1c-0.3,0-0.6-0.1-0.8-0.1c0.3-2.3,0.7-4.6,1-6.9
				C742.6,448.5,750.8,449.3,758.9,450z"/>
			<path class="st2" d="M792.4,452c-0.2,3.4-0.5,6.9-0.7,10.3c-0.3,0-0.5,0-0.8-0.1c-0.1-2-0.5-3.6-1.1-4.8c-0.6-1.2-1.5-2.2-2.7-3
				c-1.2-0.8-2.5-1.2-3.9-1.3c-1.5-0.1-2.8,0.3-3.9,1.1c-1.1,0.9-1.7,1.9-1.8,3c-0.1,0.9,0.2,1.8,0.8,2.5c0.8,1.2,2.9,2.8,6.2,4.9
				c2.7,1.7,4.5,3,5.5,3.9c1,0.9,1.7,1.9,2.2,3c0.5,1.1,0.7,2.3,0.6,3.5c-0.2,2.3-1.2,4.1-3.1,5.6c-1.9,1.5-4.3,2.1-7.1,1.9
				c-0.9-0.1-1.7-0.2-2.5-0.4c-0.5-0.1-1.4-0.4-2.8-1c-1.4-0.6-2.3-0.9-2.7-0.9c-0.4,0-0.7,0.1-0.9,0.3c-0.2,0.2-0.4,0.6-0.6,1.3
				c-0.3,0-0.6,0-0.8-0.1c0.3-3.4,0.5-6.8,0.8-10.2c0.3,0,0.5,0,0.8,0.1c0.2,2.2,0.6,3.8,1.2,4.9c0.6,1.1,1.5,2.1,2.8,2.9
				c1.3,0.8,2.8,1.3,4.4,1.4c1.9,0.1,3.4-0.2,4.5-1.1c1.2-0.9,1.8-2,1.9-3.3c0.1-0.7-0.1-1.5-0.5-2.3c-0.4-0.8-0.9-1.5-1.8-2.2
				c-0.5-0.5-2.1-1.5-4.5-3.1c-2.5-1.6-4.2-2.9-5.2-3.8c-1-0.9-1.8-1.9-2.3-3c-0.5-1.1-0.7-2.2-0.6-3.4c0.2-2.1,1.1-3.9,2.9-5.3
				c1.8-1.4,3.9-2,6.5-1.8c1.6,0.1,3.2,0.6,5,1.5c0.8,0.4,1.4,0.7,1.7,0.7c0.4,0,0.7-0.1,1-0.3c0.3-0.2,0.5-0.7,0.7-1.3
				C791.9,451.9,792.2,452,792.4,452z"/>
			<path class="st2" d="M823,454.6c0,2.3,0,4.7-0.1,7c-0.3,0-0.6,0-0.8,0c-0.1-1.2-0.3-2.1-0.5-2.7c-0.4-0.9-1-1.5-1.7-2
				c-0.7-0.4-1.7-0.7-3-0.8c-1.4-0.1-2.8-0.2-4.2-0.3c-0.5,7.6-0.9,15.1-1.4,22.7c-0.1,1.8,0,3,0.4,3.5c0.5,0.6,1.4,1,2.6,1.1
				c0.4,0,0.7,0,1.1,0.1c0,0.3,0,0.5,0,0.8c-4.3-0.3-8.6-0.5-12.9-0.8c0-0.3,0-0.5,0.1-0.8c0.4,0,0.7,0,1.1,0.1
				c1.3,0.1,2.2-0.2,2.8-1c0.4-0.4,0.6-1.5,0.7-3.2c0.5-7.6,1-15.1,1.4-22.7c-1.2-0.1-2.4-0.2-3.6-0.2c-1.4-0.1-2.4-0.1-3,0.1
				c-0.8,0.2-1.5,0.7-2.1,1.5c-0.6,0.8-1,1.8-1.2,3.1c-0.3,0-0.6,0-0.8-0.1c0.3-2.3,0.6-4.6,0.8-6.9
				C806.7,453.7,814.8,454.2,823,454.6z"/>
			<path class="st2" d="M844.3,475.6c-3.9-0.2-7.8-0.4-11.7-0.6c-0.8,1.5-1.5,3.1-2.3,4.6c-0.6,1.1-0.9,2-0.9,2.5
				c0,0.5,0.2,0.9,0.6,1.2c0.4,0.4,1.4,0.6,2.8,0.8c0,0.3,0,0.5,0,0.8c-3.2-0.2-6.4-0.3-9.6-0.5c0-0.3,0-0.5,0-0.8
				c1.3-0.1,2.1-0.4,2.5-0.7c0.8-0.7,1.7-2,2.8-4.1c4-8,7.9-16,11.9-23.9c0.3,0,0.5,0,0.8,0c3.1,8.4,6.2,16.8,9.4,25.2
				c0.8,2,1.5,3.4,2.2,4c0.7,0.6,1.6,1,2.9,1.1c0,0.3,0,0.5,0,0.8c-4-0.2-8-0.3-12-0.5c0-0.3,0-0.5,0-0.8c1.2,0,2-0.2,2.5-0.5
				c0.4-0.3,0.7-0.7,0.7-1.2c0-0.6-0.2-1.7-0.8-3.1C845.4,478.5,844.8,477,844.3,475.6z M843.7,473.9c-1.5-4.1-3-8.2-4.5-12.3
				c-1.9,3.9-3.9,7.8-5.9,11.8C836.8,473.6,840.2,473.8,843.7,473.9z"/>
			<path class="st2" d="M856.6,456.3c2.7,0.1,5.4,0.2,8.1,0.3c5.8,7.7,11.7,15.3,17.7,22.9c0.2-5.7,0.3-11.5,0.5-17.2
				c0.1-1.8-0.1-3-0.5-3.4c-0.5-0.6-1.4-1-2.6-1c-0.3,0-0.7,0-1,0c0-0.3,0-0.5,0-0.8c3.5,0.1,7,0.2,10.4,0.3c0,0.3,0,0.5,0,0.8
				c-0.4,0-0.7,0-1.1,0c-1.3,0-2.2,0.3-2.7,1.1c-0.3,0.5-0.5,1.5-0.6,3.2c-0.2,8.4-0.5,16.7-0.7,25.1c-0.3,0-0.5,0-0.8,0
				c-6.5-8.2-12.9-16.4-19.2-24.6c-0.2,6.1-0.5,12.2-0.7,18.3c-0.1,1.8,0.1,3,0.5,3.4c0.5,0.6,1.4,1,2.6,1c0.4,0,0.7,0,1.1,0
				c0,0.3,0,0.5,0,0.8c-3.5-0.1-7.1-0.3-10.6-0.4c0-0.3,0-0.5,0-0.8c0.4,0,0.7,0,1.1,0c1.3,0.1,2.2-0.3,2.8-1
				c0.3-0.5,0.6-1.5,0.6-3.2c0.3-6.9,0.5-13.8,0.8-20.7c-0.8-1-1.5-1.7-1.9-2.1c-0.4-0.3-1.1-0.7-1.9-1c-0.4-0.1-1.1-0.2-1.9-0.3
				C856.6,456.8,856.6,456.5,856.6,456.3z"/>
			<path class="st2" d="M889.9,487.2c0-0.3,0-0.5,0-0.8c0.4,0,0.8,0,1.1,0c1.3,0,2.2-0.4,2.8-1.1c0.3-0.5,0.5-1.6,0.6-3.2
				c0.1-6.4,0.3-12.8,0.4-19.2c0-1.9-0.1-3-0.5-3.5c-0.6-0.7-1.4-1-2.5-1c-0.4,0-0.8,0-1.1,0c0-0.3,0-0.5,0-0.8
				c4.1,0.1,8.1,0.2,12.2,0.3c4.5,0.1,7.9,0.6,10.2,1.7c2.3,1,4.2,2.8,5.6,5.1c1.4,2.4,2.1,5.1,2.1,8.2c0,4.1-1.4,7.6-4,10.3
				c-2.9,3.1-7.3,4.6-13.3,4.5C899,487.4,894.5,487.3,889.9,487.2z M898.7,485.2c1.9,0.4,3.5,0.7,4.8,0.7c3.5,0.1,6.4-1.1,8.7-3.4
				c2.3-2.4,3.5-5.6,3.6-9.7c0.1-4.1-1-7.4-3.3-9.8c-2.2-2.4-5.1-3.6-8.7-3.7c-1.3,0-2.8,0.2-4.6,0.5
				C899,468.3,898.8,476.8,898.7,485.2z"/>
			<path class="st2" d="M950.5,457.4c3.9,0,7.3,1.4,10.2,4.3c2.9,2.9,4.4,6.6,4.4,11c0,4.5-1.4,8.3-4.3,11.3
				c-2.9,3-6.4,4.5-10.6,4.5c-4.2,0-7.7-1.4-10.6-4.4c-2.8-2.9-4.2-6.7-4.2-11.3c0-4.7,1.7-8.6,4.9-11.6
				C943.2,458.7,946.6,457.4,950.5,457.4z M950.1,459c-2.7,0-4.8,1-6.5,3c-2,2.5-3,6.1-3.1,10.8c0,4.9,1,8.6,3.2,11.2
				c1.6,2,3.8,3,6.5,3c2.9,0,5.2-1.1,7.1-3.3c1.8-2.2,2.7-5.6,2.7-10.3c0-5.1-1.1-8.9-3.1-11.4C955.2,459.9,953,459,950.1,459z"/>
			<path class="st2" d="M966.1,457.9c2.7,0,5.4-0.1,8.1-0.1c6.2,7.4,12.5,14.7,18.9,22c-0.1-5.7-0.3-11.5-0.4-17.2
				c0-1.8-0.3-3-0.7-3.4c-0.6-0.6-1.4-0.9-2.6-0.9c-0.3,0-0.7,0-1,0c0-0.3,0-0.5,0-0.8c3.5-0.1,7-0.2,10.4-0.2c0,0.3,0,0.5,0,0.8
				c-0.4,0-0.7,0-1.1,0c-1.3,0-2.2,0.4-2.7,1.2c-0.3,0.5-0.5,1.5-0.4,3.2c0.2,8.4,0.4,16.7,0.6,25.1c-0.3,0-0.5,0-0.8,0
				c-6.9-7.8-13.7-15.7-20.4-23.6c0.1,6.1,0.2,12.2,0.3,18.3c0,1.8,0.2,3,0.7,3.4c0.6,0.6,1.5,0.9,2.6,0.9c0.4,0,0.7,0,1.1,0
				c0,0.3,0,0.5,0,0.8c-3.5,0.1-7.1,0.1-10.6,0.1c0-0.3,0-0.5,0-0.8c0.4,0,0.7,0,1.1,0c1.3,0,2.2-0.4,2.7-1.2
				c0.3-0.5,0.5-1.5,0.5-3.2c-0.1-6.9-0.2-13.8-0.3-20.7c-0.9-1-1.6-1.7-2-2c-0.5-0.3-1.1-0.6-2-0.9c-0.4-0.1-1.1-0.2-2-0.2
				C966.1,458.5,966.1,458.2,966.1,457.9z"/>
			<path class="st2" d="M1016.2,459.7c2.4-1.3,4.8-2.5,7.2-3.8c0.2,0,0.5,0,0.7,0c0.3,8.4,0.6,16.8,1,25.1c0.1,1.7,0.2,2.7,0.3,3.1
				c0.2,0.4,0.5,0.7,0.9,0.9c0.5,0.2,1.4,0.3,2.8,0.3c0,0.3,0,0.5,0,0.8c-3.8,0.2-7.6,0.3-11.4,0.4c0-0.3,0-0.5,0-0.8
				c1.4-0.1,2.4-0.2,2.8-0.5c0.4-0.2,0.7-0.5,0.8-0.9c0.2-0.4,0.2-1.4,0.1-3.2c-0.2-5.4-0.4-10.7-0.6-16.1c-0.1-2.2-0.2-3.6-0.4-4.2
				c-0.1-0.5-0.3-0.8-0.6-1c-0.3-0.2-0.6-0.3-1-0.3c-0.5,0-1.3,0.3-2.3,0.8C1016.4,460.2,1016.3,460,1016.2,459.7z"/>
			<path class="st2" d="M1038,456c5.4-0.2,10.7-0.5,16.1-0.8c0,0.3,0,0.6,0,0.8c-2.8,10-5.7,20-8.6,30c-0.8,0-1.7,0.1-2.5,0.1
				c2.6-9.1,5.2-18.2,7.7-27.2c-2.8,0.1-5.5,0.3-8.3,0.4c-1.7,0.1-2.8,0.3-3.5,0.8c-1.2,0.7-2.2,1.8-2.9,3.2
				c-0.2-0.1-0.4-0.1-0.7-0.2C1036.2,460.7,1037.1,458.3,1038,456z"/>
			<path class="st2" d="M1089.4,472.9c-3.9,0.3-7.8,0.5-11.7,0.8c-0.6,1.6-1.2,3.2-1.8,4.8c-0.4,1.2-0.6,2.1-0.6,2.6
				c0,0.5,0.3,0.8,0.7,1.2c0.5,0.3,1.4,0.5,2.9,0.5c0,0.3,0,0.5,0.1,0.8c-3.2,0.2-6.4,0.4-9.6,0.6c0-0.3,0-0.5,0-0.8
				c1.3-0.3,2.1-0.6,2.4-1c0.7-0.7,1.5-2.2,2.3-4.4c3.1-8.4,6.1-16.8,9-25.1c0.3,0,0.5,0,0.8-0.1c4,8,8.1,16,12.2,24
				c1,1.9,1.9,3.2,2.6,3.7c0.7,0.5,1.7,0.8,3,0.8c0,0.3,0,0.5,0.1,0.8c-4,0.3-8,0.6-12,0.9c0-0.3,0-0.5-0.1-0.8
				c1.2-0.1,2-0.4,2.4-0.8c0.4-0.4,0.6-0.8,0.6-1.3c0-0.6-0.4-1.6-1.1-3C1090.8,475.7,1090.1,474.3,1089.4,472.9z M1088.7,471.3
				c-2-3.9-4-7.8-5.9-11.7c-1.5,4.1-3,8.2-4.5,12.4C1081.8,471.8,1085.2,471.6,1088.7,471.3z"/>
			<path class="st2" d="M1099.5,452.3c2.7-0.2,5.4-0.4,8.1-0.6c6.7,7,13.4,13.9,20.2,20.8c-0.5-5.7-1-11.4-1.5-17.1
				c-0.2-1.8-0.5-2.9-0.9-3.4c-0.6-0.6-1.5-0.8-2.7-0.7c-0.3,0-0.7,0.1-1,0.1c0-0.3,0-0.5-0.1-0.8c3.5-0.3,6.9-0.6,10.4-0.9
				c0,0.3,0,0.5,0.1,0.8c-0.4,0-0.7,0.1-1.1,0.1c-1.3,0.1-2.1,0.6-2.6,1.4c-0.3,0.5-0.4,1.6-0.2,3.2c0.7,8.3,1.5,16.7,2.2,25
				c-0.3,0-0.5,0-0.8,0.1c-7.4-7.4-14.7-14.8-21.9-22.3c0.5,6.1,0.9,12.2,1.4,18.3c0.1,1.8,0.4,2.9,0.9,3.4c0.6,0.6,1.5,0.8,2.7,0.7
				c0.4,0,0.7-0.1,1.1-0.1c0,0.3,0,0.5,0.1,0.8c-3.5,0.3-7,0.6-10.6,0.8c0-0.3,0-0.5-0.1-0.8c0.4,0,0.7-0.1,1.1-0.1
				c1.3-0.1,2.2-0.5,2.7-1.3c0.3-0.5,0.4-1.6,0.2-3.2c-0.5-6.9-1.1-13.8-1.6-20.7c-0.9-0.9-1.7-1.6-2.1-1.8c-0.5-0.3-1.2-0.5-2-0.7
				c-0.4-0.1-1.1-0.1-2-0.1C1099.5,452.9,1099.5,452.6,1099.5,452.3z"/>
			<path class="st2" d="M1136.1,479.2c0-0.3,0-0.5-0.1-0.8c0.4,0,0.8-0.1,1.1-0.1c1.3-0.1,2.2-0.6,2.6-1.5c0.3-0.5,0.3-1.6,0.2-3.3
				c-0.6-6.4-1.2-12.8-1.8-19.2c-0.2-1.9-0.5-3-0.9-3.4c-0.6-0.6-1.5-0.8-2.6-0.7c-0.4,0-0.8,0.1-1.1,0.1c0-0.3,0-0.5-0.1-0.8
				c4.1-0.4,8.1-0.7,12.2-1.1c4.5-0.4,7.9-0.3,10.4,0.5c2.4,0.8,4.5,2.3,6.1,4.5c1.7,2.2,2.7,4.8,3,7.9c0.4,4.1-0.5,7.7-2.8,10.7
				c-2.6,3.4-6.8,5.4-12.7,5.9C1145.2,478.4,1140.7,478.8,1136.1,479.2z M1144.6,476.3c1.9,0.2,3.5,0.3,4.8,0.2
				c3.5-0.3,6.2-1.8,8.2-4.4c2-2.6,2.8-5.9,2.4-10c-0.4-4.1-1.9-7.2-4.4-9.3c-2.5-2.1-5.5-3-9-2.7c-1.3,0.1-2.8,0.5-4.5,1.1
				C1143,459.5,1143.8,467.9,1144.6,476.3z"/>
			<path class="st2" d="M1180.7,474.7c0-0.3-0.1-0.5-0.1-0.8c0.4,0,0.8-0.1,1.1-0.1c1.3-0.1,2.1-0.6,2.6-1.5
				c0.3-0.5,0.3-1.6,0.1-3.3c-0.7-6.4-1.4-12.8-2.2-19.1c-0.2-1.8-0.5-3-1-3.4c-0.6-0.6-1.5-0.8-2.7-0.7c-0.4,0-0.7,0.1-1.1,0.1
				c0-0.3-0.1-0.5-0.1-0.8c4.1-0.4,8.1-0.9,12.2-1.4c4.5-0.5,7.9-0.4,10.4,0.3c2.4,0.7,4.5,2.2,6.2,4.3c1.7,2.2,2.8,4.8,3.1,7.8
				c0.5,4.1-0.3,7.7-2.5,10.8c-2.5,3.4-6.7,5.5-12.6,6.2C1189.7,473.7,1185.2,474.2,1180.7,474.7z M1189.1,471.6
				c1.9,0.2,3.5,0.2,4.8,0.1c3.5-0.4,6.2-1.9,8.2-4.6c2-2.6,2.7-6,2.2-10.1c-0.5-4.1-2-7.2-4.6-9.2c-2.5-2.1-5.6-2.9-9.1-2.5
				c-1.3,0.2-2.8,0.5-4.4,1.2C1187.1,454.8,1188.1,463.2,1189.1,471.6z"/>
			<path class="st2" d="M1243.8,466.8c-2.7,0.4-5.4,0.8-8.1,1.1c-4-4.1-8.1-8.3-12.1-12.4c-0.7,0.1-1.4,0.2-1.8,0.3
				c-0.2,0-0.4,0-0.6,0.1c-0.2,0-0.5,0-0.7,0.1c0.4,2.9,0.7,5.7,1.1,8.6c0.2,1.9,0.6,3,1.1,3.4c0.6,0.6,1.5,0.8,2.7,0.6
				c0.4-0.1,0.8-0.1,1.2-0.2c0,0.3,0.1,0.5,0.1,0.8c-4.3,0.6-8.6,1.1-13,1.7c0-0.3-0.1-0.5-0.1-0.8c0.4,0,0.8-0.1,1.1-0.1
				c1.3-0.2,2.1-0.7,2.6-1.6c0.3-0.5,0.3-1.6,0.1-3.3c-0.8-6.4-1.6-12.7-2.5-19.1c-0.2-1.9-0.6-3-1.1-3.4c-0.7-0.6-1.5-0.8-2.7-0.6
				c-0.4,0-0.7,0.1-1.1,0.1c0-0.3-0.1-0.5-0.1-0.8c3.6-0.5,7.2-0.9,10.9-1.4c3.2-0.4,5.5-0.5,7.1-0.2c1.6,0.3,3,0.9,4.2,2
				c1.2,1.1,1.9,2.5,2.2,4.2c0.2,1.8-0.1,3.5-1.1,5c-1,1.5-2.8,2.7-5.2,3.6c2.4,2.5,4.9,5.1,7.4,7.6c1.7,1.7,3.1,2.9,4.2,3.4
				c1.1,0.5,2.5,0.7,4.2,0.7C1243.7,466.3,1243.7,466.5,1243.8,466.8z M1220.3,454.5c0.3,0,0.5-0.1,0.7-0.1c0.2,0,0.4,0,0.5-0.1
				c2.9-0.4,4.9-1.3,6.2-2.7c1.3-1.4,1.8-3.1,1.5-5c-0.2-1.8-1-3.3-2.4-4.3c-1.3-1-2.9-1.4-4.9-1.1c-0.9,0.1-2,0.4-3.4,0.9
				C1219.2,446.3,1219.8,450.4,1220.3,454.5z"/>
			<path class="st2" d="M1262.7,453.9c-3.9,0.6-7.8,1.2-11.6,1.7c-0.5,1.6-0.9,3.3-1.4,4.9c-0.3,1.2-0.5,2.1-0.4,2.7
				c0.1,0.4,0.3,0.8,0.8,1.1c0.5,0.3,1.5,0.4,2.9,0.3c0,0.3,0.1,0.5,0.1,0.8c-3.2,0.5-6.3,0.9-9.5,1.4c0-0.3-0.1-0.5-0.1-0.8
				c1.2-0.4,2-0.8,2.3-1.2c0.7-0.8,1.3-2.3,1.9-4.6c2.4-8.6,4.7-17.2,7-25.8c0.3,0,0.5-0.1,0.8-0.1c4.7,7.7,9.4,15.3,14.1,22.9
				c1.1,1.8,2.1,3,2.9,3.5c0.8,0.5,1.8,0.7,3,0.5c0,0.3,0.1,0.5,0.1,0.8c-4,0.6-7.9,1.2-11.9,1.8c0-0.3-0.1-0.5-0.1-0.8
				c1.2-0.2,2-0.6,2.3-1c0.4-0.4,0.5-0.8,0.4-1.3c-0.1-0.6-0.5-1.6-1.3-2.9C1264.4,456.6,1263.6,455.3,1262.7,453.9z M1261.9,452.4
				c-2.3-3.7-4.6-7.4-6.9-11.2c-1.1,4.2-2.3,8.5-3.5,12.7C1255,453.5,1258.4,452.9,1261.9,452.4z"/>
			<path class="st2" d="M1313.7,425.5c0,0.3,0.1,0.5,0.1,0.8c-0.8,0.1-1.4,0.4-1.8,0.7c-0.4,0.4-0.8,1-1.1,1.8
				c-0.2,0.6-0.5,1.8-0.7,3.9c-1.4,8.4-2.8,16.7-4.3,25.1c-0.3,0.1-0.6,0.1-0.9,0.2c-3.4-5.9-6.7-11.7-10-17.6
				c-1.2,6.6-2.4,13.3-3.7,19.9c-0.3,0-0.5,0.1-0.8,0.1c-4.3-7.7-8.6-15.3-12.8-23c-0.9-1.7-1.5-2.7-1.8-3c-0.4-0.5-0.8-0.8-1.4-1
				c-0.5-0.2-1.3-0.2-2.1-0.1c0-0.3-0.1-0.5-0.1-0.8c3.7-0.6,7.3-1.2,11-1.8c0,0.3,0.1,0.5,0.1,0.8c-0.2,0-0.4,0.1-0.5,0.1
				c-0.8,0.1-1.3,0.4-1.7,0.8c-0.4,0.4-0.5,0.9-0.4,1.4c0.1,0.5,0.6,1.6,1.5,3.3c2.8,5.2,5.7,10.4,8.6,15.5
				c0.9-4.9,1.8-9.9,2.6-14.8c-0.4-0.8-0.9-1.5-1.3-2.3c-0.3-0.6-0.7-1.2-1-1.9c-0.4-0.7-0.9-1.3-1.3-1.7c-0.2-0.2-0.5-0.4-0.8-0.6
				c-0.4-0.2-0.8-0.3-1.2-0.4c-0.3,0-0.7,0-1.3,0.1c0-0.3-0.1-0.5-0.1-0.8c3.9-0.6,7.7-1.3,11.6-1.9c0,0.3,0.1,0.5,0.1,0.8
				c-0.3,0-0.5,0.1-0.8,0.1c-0.8,0.1-1.4,0.4-1.7,0.8c-0.3,0.4-0.4,0.9-0.3,1.5c0.1,0.7,0.7,2,1.6,3.7c2.8,5,5.6,10,8.4,15
				c1-5.7,1.9-11.4,2.9-17.2c0.3-1.9,0.4-3.2,0.3-3.9c-0.1-0.3-0.2-0.6-0.5-0.9c-0.3-0.3-0.6-0.4-0.9-0.5c-0.6-0.1-1.3-0.1-2.2,0.1
				c0-0.3-0.1-0.5-0.1-0.8C1307.8,426.5,1310.7,426,1313.7,425.5z"/>
			<path class="st2" d="M1351.1,418.5c0.6,2.3,1.1,4.5,1.7,6.8c-0.3,0.1-0.6,0.1-0.8,0.2c-0.4-1.2-0.8-2-1.2-2.5
				c-0.6-0.7-1.3-1.2-2.2-1.5c-0.8-0.2-1.9-0.3-3.1,0c-1.4,0.3-2.8,0.5-4.2,0.8c1.4,7.5,2.8,14.9,4.3,22.4c0.3,1.8,0.8,2.9,1.2,3.3
				c0.7,0.5,1.6,0.6,2.8,0.4c0.3-0.1,0.7-0.1,1-0.2c0.1,0.3,0.1,0.5,0.2,0.8c-4.2,0.8-8.5,1.6-12.7,2.4c0-0.3-0.1-0.5-0.1-0.8
				c0.4-0.1,0.7-0.1,1.1-0.2c1.3-0.2,2.1-0.8,2.5-1.6c0.2-0.5,0.2-1.6-0.1-3.2c-1.4-7.5-2.8-14.9-4.2-22.4c-1.2,0.2-2.4,0.4-3.6,0.7
				c-1.4,0.3-2.4,0.5-2.9,0.9c-0.7,0.4-1.3,1.1-1.7,1.9c-0.4,0.9-0.5,2-0.4,3.3c-0.3,0.1-0.6,0.1-0.8,0.2c-0.3-2.3-0.6-4.6-0.9-6.9
				C1335,421.6,1343,420.1,1351.1,418.5z"/>
			<path class="st2" d="M1368.7,414.3c3.8-0.8,7.5,0,10.9,2.2c3.4,2.3,5.6,5.6,6.5,9.9c0.9,4.4,0.3,8.4-2,11.9
				c-2.3,3.5-5.4,5.7-9.5,6.5c-4.1,0.8-7.9,0.1-11.3-2.2c-3.4-2.3-5.5-5.7-6.4-10.3c-0.9-4.6-0.1-8.7,2.6-12.3
				C1361.8,417,1364.9,415.1,1368.7,414.3z M1368.6,416c-2.6,0.5-4.6,1.9-5.8,4.2c-1.5,2.8-1.8,6.5-0.9,11.2c1,4.8,2.7,8.2,5.3,10.4
				c2,1.6,4.3,2.2,7,1.6c2.8-0.6,4.9-2.1,6.3-4.6c1.4-2.5,1.6-6.1,0.6-10.7c-1-5-2.8-8.5-5.3-10.5
				C1373.9,415.9,1371.5,415.4,1368.6,416z"/>
			<path class="st2" d="M1401.8,411c2.1-1.7,4.3-3.4,6.4-5.1c0.2-0.1,0.5-0.1,0.7-0.2c1.8,8.2,3.7,16.4,5.5,24.5
				c0.4,1.6,0.7,2.6,0.9,3c0.2,0.4,0.6,0.6,1.1,0.7c0.5,0.1,1.4,0,2.8-0.2c0.1,0.3,0.1,0.5,0.2,0.8c-3.7,0.8-7.5,1.7-11.2,2.5
				c-0.1-0.3-0.1-0.5-0.2-0.8c1.4-0.3,2.3-0.7,2.7-1c0.4-0.3,0.6-0.6,0.7-1c0.1-0.4-0.1-1.5-0.5-3.2c-1.2-5.2-2.3-10.5-3.5-15.7
				c-0.5-2.1-0.8-3.5-1.1-4c-0.2-0.4-0.5-0.7-0.8-0.9c-0.3-0.2-0.7-0.2-1-0.1c-0.5,0.1-1.2,0.5-2.1,1.2
				C1402.1,411.4,1401.9,411.2,1401.8,411z"/>
			<path class="st2" d="M1437.9,399c0.1,0.3,0.1,0.5,0.2,0.8c-1.9,0.6-3.3,1.4-4.4,2.2c-1.1,0.8-2.1,2-3,3.4c-0.9,1.4-1.6,2.9-2,4.6
				c-0.4,1.6-0.7,3.4-0.8,5.5c1.8-1.9,3.7-3.1,5.8-3.6c2-0.5,4-0.1,5.8,1.1c1.9,1.2,3.1,3.1,3.7,5.6c0.6,2.4,0.4,4.8-0.7,7.2
				c-1.2,2.9-3.4,4.6-6.3,5.3c-2,0.5-3.9,0.2-5.7-0.8c-3.4-1.9-5.5-4.9-6.5-9c-0.6-2.6-0.6-5.2-0.1-7.8c0.5-2.6,1.6-5,3.1-7.3
				c1.5-2.3,3.1-3.9,4.8-5c1.6-1.1,3.2-1.8,4.8-2.1C1437.1,399.2,1437.5,399.1,1437.9,399z M1427.9,417.2c0.2,2,0.4,3.6,0.7,4.8
				c0.3,1.4,0.9,2.8,1.8,4.3c0.9,1.5,2,2.6,3.2,3.3c0.9,0.5,1.9,0.6,3,0.4c1.3-0.3,2.3-1.2,3-2.6c0.7-1.4,0.8-3.2,0.3-5.4
				c-0.6-2.4-1.6-4.4-3-6c-1.4-1.5-3-2.1-4.8-1.7c-0.6,0.1-1.1,0.4-1.7,0.8C1429.8,415.4,1429,416.1,1427.9,417.2z"/>
		</g>
	</g>
	<g>
		<g>
			<path class="st3" d="M381.6,532.8c-0.1,0.6-0.3,1.2-0.4,1.8c-11.7-2.6-23.4-5.4-35.1-8.2c0.1-0.6,0.3-1.2,0.4-1.8
				c0.7,0.2,1.5,0.4,2.2,0.5c1.9,0.5,3.6,0.5,4.9,0.1c1-0.2,1.8-0.8,2.5-1.8c0.5-0.7,1.2-2.6,2-5.9c3.3-14.1,6.7-28.3,10-42.4
				c0.8-3.3,1.1-5.4,0.9-6.3c-0.2-0.9-0.7-1.8-1.6-2.7c-0.9-0.9-2.3-1.5-4.1-2c-0.7-0.2-1.4-0.3-2.2-0.5c0.1-0.6,0.3-1.2,0.4-1.8
				c11.4,2.7,22.8,5.4,34.2,8c-0.1,0.6-0.3,1.2-0.4,1.8c-0.7-0.2-1.4-0.3-2.2-0.5c-1.9-0.4-3.5-0.4-4.8,0c-0.9,0.3-1.8,0.9-2.5,1.8
				c-0.5,0.7-1.2,2.6-1.9,5.9c-3.2,14.2-6.5,28.3-9.7,42.5c-0.8,3.3-1,5.4-0.9,6.3c0.2,0.9,0.8,1.8,1.7,2.7c1,0.9,2.4,1.5,4.3,1.9
				C380.1,532.5,380.9,532.6,381.6,532.8z"/>
			<path class="st3" d="M422.7,475.9c7.9,15.7,16,31.4,24.3,47c1.9-9.3,3.7-18.6,5.6-27.9c0.8-3.9,0.7-6.6-0.1-8.2
				c-1.2-2.2-3.6-3.6-7.3-4.3c0.1-0.6,0.2-1.2,0.4-1.8c7.2,1.5,14.5,2.9,21.7,4.3c-0.1,0.6-0.2,1.2-0.3,1.8
				c-2.9-0.2-4.8-0.1-5.9,0.3c-1.1,0.4-2,1.1-2.8,2.3c-0.8,1.2-1.5,3.3-2.1,6.3c-3.6,18-7.2,36-10.8,54.1c-0.6-0.1-1.1-0.2-1.7-0.3
				c-11.6-21.1-22.9-42.2-33.8-63.4c-3,13.7-6,27.4-9,41.1c-0.8,3.7-0.5,6.4,1,8.1c1.5,1.7,3.4,2.8,5.6,3.3c0.5,0.1,1.1,0.2,1.6,0.3
				c-0.1,0.6-0.3,1.2-0.4,1.8c-8-1.7-15.9-3.4-23.9-5.2c0.1-0.6,0.3-1.2,0.4-1.8c3.7,0.8,6.4,0.6,8.2-0.5c1.8-1.1,3-3.4,3.8-6.8
				c3.3-15.2,6.7-30.4,10-45.6c-0.3-0.7-0.7-1.4-1-2c-1-2-2-3.4-2.9-4.2c-0.9-0.8-2.4-1.4-4.4-1.9c0.1-0.6,0.3-1.2,0.4-1.8
				C407.2,472.5,414.9,474.2,422.7,475.9z"/>
			<path class="st3" d="M516.6,492.6c-1.1,7.3-2.2,14.6-3.3,21.8c-0.7-0.1-1.3-0.2-2-0.4c0-5.6-1.5-10.4-4.6-14.4
				c-3.1-4-6.8-6.4-11.1-7.1c-3.3-0.6-6.1-0.2-8.3,1.2c-2.3,1.4-3.6,3.2-4,5.5c-0.3,1.4-0.2,2.8,0.3,4c0.7,1.7,1.9,3.5,3.7,5.3
				c1.3,1.3,4.5,3.9,9.6,7.6c7.1,5.2,11.8,9.6,13.9,13.4c2.1,3.8,2.8,7.9,2.1,12.2c-0.9,5.5-4,9.8-9,12.9c-5.1,3.2-11,4.1-17.8,2.9
				c-2.1-0.4-4.1-1-5.9-1.7c-1.8-0.8-4-2-6.7-3.7c-1.5-0.9-2.7-1.5-3.8-1.7c-0.9-0.2-1.8,0-2.9,0.4c-1.1,0.5-2.1,1.3-2.9,2.5
				c-0.6-0.1-1.2-0.2-1.8-0.4c1.6-8.2,3.2-16.4,4.7-24.5c0.6,0.1,1.2,0.2,1.8,0.4c0.1,7.2,1.9,13,5.4,17.4c3.5,4.4,7.6,7.1,12.4,7.9
				c3.7,0.7,6.9,0.2,9.4-1.3c2.6-1.6,4.1-3.6,4.5-6.2c0.3-1.5,0.1-3.1-0.5-4.7c-0.6-1.6-1.6-3.2-3.1-4.8c-1.5-1.6-4.2-3.8-8.2-6.7
				c-5.6-4-9.4-7.3-11.7-9.9c-2.3-2.5-3.9-5.2-4.8-8c-0.9-2.8-1.1-5.7-0.5-8.8c1-5.2,3.8-9.2,8.3-12.1c4.6-2.9,9.7-3.8,15.6-2.7
				c2.1,0.4,4.2,1,6.1,1.9c1.5,0.7,3.2,1.7,5.2,3.1c2,1.4,3.4,2.2,4.3,2.4c0.8,0.1,1.6,0,2.1-0.4c0.6-0.4,1.2-1.6,2-3.5
				C515.7,492.5,516.1,492.6,516.6,492.6z"/>
			<path class="st3" d="M527.3,496c11.4,1.9,22.7,3.8,34.1,5.6c-0.1,0.6-0.2,1.2-0.3,1.8c-0.6-0.1-1.1-0.2-1.7-0.3
				c-2.6-0.4-4.4-0.4-5.4,0c-1,0.4-1.8,1-2.4,1.9c-0.6,0.9-1.1,3.2-1.7,6.9c-1.7,10.7-3.4,21.3-5.2,32c-0.9,5.8-1.1,9.8-0.5,11.8
				c0.6,2,1.9,3.9,3.8,5.4c1.9,1.6,4.4,2.6,7.6,3.1c3.7,0.6,6.9,0.3,9.7-1c2.8-1.2,5.1-3.1,6.8-5.7c1.7-2.6,3.1-7.4,4.1-14.3
				c1.3-8.9,2.6-17.8,4-26.7c0.4-2.9,0.4-5.1,0-6.4c-0.4-1.3-1.1-2.3-2-3c-1.4-1-3.4-1.6-6-2c0.1-0.6,0.2-1.2,0.3-1.8
				c7.6,1.2,15.3,2.3,22.9,3.4c-0.1,0.6-0.2,1.2-0.3,1.8c-0.5-0.1-0.9-0.1-1.4-0.2c-1.9-0.3-3.5-0.1-4.8,0.4
				c-1.3,0.6-2.4,1.5-3.2,2.9c-0.6,1-1.1,2.8-1.5,5.5c-1.2,8.3-2.4,16.6-3.7,24.9c-1.1,7.7-2.5,13.2-4,16.4c-1.6,3.3-4.6,6-9.1,8.3
				c-4.5,2.3-10.3,2.8-17.3,1.7c-5.9-0.9-10.3-2.4-13.2-4.4c-4-2.8-6.7-5.9-7.9-9.4c-1.3-3.5-1.4-8-0.5-13.4
				c1.8-10.7,3.6-21.3,5.4-32c0.6-3.8,0.8-6.1,0.5-7.1c-0.3-1-0.9-1.8-1.8-2.6c-0.9-0.7-2.8-1.3-5.6-1.7
				C527.1,497.2,527.2,496.6,527.3,496z"/>
			<path class="st3" d="M618.9,546.3c-0.8,6.1-1.6,12.3-2.4,18.4c-0.5,3.6-0.5,5.8-0.2,6.8c0.3,1,1,1.8,2.1,2.5
				c1.1,0.7,3.2,1.2,6.3,1.6c-0.1,0.6-0.2,1.2-0.2,1.8c-11.6-1.5-23.2-3.1-34.8-4.7c0.1-0.6,0.2-1.2,0.3-1.8
				c3.1,0.4,5.3,0.5,6.5,0.1c1.2-0.4,2.1-1,2.7-1.9c0.6-0.8,1.1-3,1.6-6.6c2-14.2,3.9-28.4,5.9-42.6c0.5-3.5,0.6-5.8,0.3-6.8
				c-0.3-1-1-1.8-2-2.5c-1-0.7-3.1-1.3-6.1-1.7c0.1-0.6,0.2-1.2,0.3-1.8c10.3,1.5,20.5,2.8,30.8,4.2c8,1,13.8,2.3,17.4,3.9
				c3.6,1.6,6.4,3.9,8.4,7.2c2,3.2,2.8,6.8,2.3,10.8c-0.6,4.8-2.8,8.7-6.8,11.4c-2.5,1.7-5.9,2.9-10.1,3.3c4.5,8.1,9,16.1,13.6,24.2
				c1.8,3.1,3.1,5.1,3.9,5.9c1.3,1.2,2.8,1.9,4.6,2.2c-0.1,0.6-0.1,1.2-0.2,1.8c-7.2-0.8-14.3-1.6-21.4-2.5
				c-6.1-10.9-12.1-21.8-18-32.7C621.9,546.7,620.4,546.5,618.9,546.3z M623.2,514.1c-1.3,9.6-2.5,19.2-3.8,28.8
				c0.9,0.1,1.9,0.2,2.8,0.4c4.6,0.6,8.1,0.6,10.5,0.1c2.4-0.5,4.4-1.8,5.9-3.8c1.6-2,2.6-4.7,3-8.2c0.6-5-0.1-8.9-2.2-11.5
				c-2.1-2.7-5.7-4.4-11-5C626.7,514.6,624.9,514.4,623.2,514.1z"/>
			<path class="st3" d="M706.6,567.8c-8-0.8-15.9-1.6-23.9-2.4c-1.2,2-2.4,4.1-3.5,6.1c-1.2,2-1.8,3.7-2,5.1
				c-0.2,1.8,0.4,3.3,1.9,4.3c0.8,0.6,3,1.2,6.6,1.9c-0.1,0.6-0.1,1.2-0.2,1.8c-7.6-0.8-15.1-1.6-22.7-2.5c0.1-0.6,0.1-1.2,0.2-1.8
				c2.5-0.1,4.6-0.8,6.4-2.3c1.7-1.4,4.1-4.5,6.9-9.3c10-16.6,19.8-33.3,29.5-50.1c0.3,0,0.6,0.1,0.9,0.1
				c6.2,18.8,12.6,37.6,19.1,56.3c1.9,5.3,3.5,8.7,4.9,10.2c1.1,1.1,2.6,1.8,4.7,2.2c-0.1,0.6-0.1,1.2-0.2,1.8c-11-0.9-22-1.9-33-3
				c0.1-0.6,0.1-1.2,0.2-1.8c0.5,0,0.9,0.1,1.4,0.1c2.6,0.3,4.5,0.1,5.7-0.5c0.8-0.4,1.2-1.2,1.3-2.1c0.1-0.6,0-1.2-0.1-1.8
				c0-0.3-0.4-1.6-1.2-3.8C708.4,573.5,707.5,570.6,706.6,567.8z M705.2,564c-2.6-7.9-5.2-15.8-7.8-23.7
				c-4.2,7.2-8.4,14.4-12.7,21.6C691.6,562.6,698.4,563.3,705.2,564z"/>
			<path class="st3" d="M766.9,525.4c9.9,14.5,20,28.9,30.3,43.2c0.6-9.5,1.2-18.9,1.8-28.4c0.2-4-0.2-6.7-1.2-8.1
				c-1.5-2-4-3.1-7.7-3.2c0-0.6,0.1-1.2,0.1-1.8c7.3,0.5,14.7,0.9,22,1.3c0,0.6-0.1,1.2-0.1,1.8c-2.8,0.2-4.8,0.5-5.8,1.1
				c-1,0.5-1.8,1.4-2.4,2.6c-0.6,1.3-1,3.4-1.2,6.6c-1.1,18.3-2.2,36.7-3.3,55c-0.6,0-1.1-0.1-1.7-0.1
				c-14.3-19.3-28.3-38.7-41.9-58.2c-1.1,14-2.2,28-3.3,42c-0.3,3.8,0.4,6.4,2.1,7.9c1.7,1.5,3.7,2.3,6,2.5c0.5,0,1.1,0.1,1.6,0.1
				c0,0.6-0.1,1.2-0.1,1.8c-8.1-0.6-16.1-1.2-24.2-1.9c0.1-0.6,0.1-1.2,0.2-1.8c3.8,0.3,6.4-0.3,8-1.6c1.6-1.3,2.5-3.8,2.8-7.3
				c1.2-15.5,2.5-31.1,3.7-46.6c-0.4-0.6-0.9-1.2-1.3-1.9c-1.3-1.9-2.4-3.1-3.5-3.8c-1-0.6-2.6-1.1-4.6-1.3c0.1-0.6,0.1-1.2,0.2-1.8
				C751.2,524.2,759.1,524.8,766.9,525.4z"/>
			<path class="st3" d="M881.8,529.9c-0.2,7.6-0.5,15.3-0.7,22.9c-0.6,0-1.3,0-1.9-0.1c-1.3-6-3.8-10.7-7.7-14
				c-3.8-3.3-8.2-5.1-13.2-5.3c-4.2-0.2-8,0.9-11.6,3.1c-3.6,2.2-6.3,5.2-8.1,9c-2.3,4.8-3.6,10.2-3.9,16.2
				c-0.3,5.9,0.2,11.3,1.5,16.3c1.3,4.9,3.6,8.7,6.7,11.4c3.2,2.6,7.4,4.1,12.6,4.3c4.3,0.2,8.3-0.6,11.9-2.3
				c3.6-1.7,7.5-4.7,11.6-9.1c-0.1,1.9-0.1,3.8-0.2,5.7c-3.9,3.8-8,6.4-12.2,8c-4.2,1.6-9.1,2.3-14.7,2.1c-7.3-0.3-13.7-2-19.3-5.1
				c-5.5-3.1-9.7-7.4-12.5-12.8c-2.8-5.5-4-11.2-3.7-17.2c0.3-6.3,2.4-12.2,6-17.7c3.6-5.5,8.4-9.6,14.2-12.5
				c5.8-2.9,11.9-4.2,18.2-3.9c4.7,0.2,9.6,1.4,14.7,3.6c3,1.3,4.9,1.9,5.7,1.9c1.1,0,2-0.3,2.8-1.1c0.8-0.7,1.3-1.9,1.6-3.6
				C880.5,529.8,881.1,529.9,881.8,529.9z"/>
			<path class="st3" d="M914.6,536c-0.1,9-0.3,18-0.4,26.9c0.4,0,0.9,0,1.3,0c4.3,0.1,7.4-1.2,9.4-3.8c2-2.6,3.2-6.5,3.8-11.6
				c0.6,0,1.3,0,1.9,0c-0.1,11.6-0.2,23.1-0.4,34.7c-0.6,0-1.3,0-1.9,0c-0.4-3.8-1.2-6.9-2.4-9.3c-1.3-2.4-2.7-4.1-4.4-4.9
				c-1.7-0.9-4.1-1.3-7.4-1.4c-0.1,6.2-0.2,12.4-0.3,18.6c-0.1,3.6,0.1,5.9,0.4,6.7c0.3,0.8,0.9,1.5,1.8,2c0.9,0.5,2.3,0.8,4.2,0.8
				c1.4,0,2.7,0,4.1,0.1c6.4,0.1,11.5-1.3,15.4-4.1c3.9-2.8,6.6-7.2,8.3-13c0.6,0,1.2,0,1.9,0c-1,7-2.1,14-3.1,21
				c-19.7-0.1-39.4-0.4-59.2-0.9c0-0.6,0-1.2,0-1.8c0.8,0,1.5,0,2.3,0.1c2,0.1,3.6-0.3,4.8-0.9c0.9-0.4,1.6-1.2,2.1-2.3
				c0.4-0.8,0.6-2.8,0.7-6.1c0.3-14.5,0.7-29,1-43.5c0.1-3,0-4.8-0.1-5.5c-0.3-1.1-0.9-2-1.8-2.7c-1.2-0.9-2.9-1.4-5.1-1.5
				c-0.7,0-1.5,0-2.2-0.1c0-0.6,0-1.2,0-1.8c18.6,0.5,37.2,0.8,55.8,0.9c0,6.5-0.1,13.1-0.1,19.6c-0.6,0-1.3,0-1.9,0
				c-0.9-4.8-2.3-8.2-4-10.3c-1.7-2.1-4.1-3.6-7.3-4.7c-1.8-0.6-5.3-0.9-10.3-1C919.2,536,916.9,536,914.6,536z"/>
			<path class="st3" d="M1007.5,568.2c0.1,6.1,0.2,12.2,0.4,18.4c0.1,3.6,0.3,5.8,0.8,6.7c0.5,0.9,1.3,1.6,2.5,2.2
				c1.2,0.5,3.3,0.8,6.4,0.7c0,0.6,0,1.2,0,1.8c-11.6,0.3-23.2,0.5-34.8,0.6c0-0.6,0-1.2,0-1.8c3.2,0,5.3-0.3,6.4-0.9
				c1.1-0.6,1.9-1.3,2.3-2.3c0.4-0.9,0.6-3.2,0.6-6.7c-0.2-14.3-0.4-28.6-0.6-43c0-3.6-0.3-5.8-0.8-6.8c-0.5-0.9-1.2-1.7-2.4-2.2
				c-1.1-0.5-3.2-0.8-6.3-0.8c0-0.6,0-1.2,0-1.8c9.7-0.1,19.4-0.2,29.1-0.5c9.6-0.2,16.5,1.3,20.8,4.6c4.3,3.3,6.5,7.4,6.7,12.5
				c0.1,4.3-1.1,8-3.7,11.2c-2.6,3.1-6.3,5.3-11.1,6.6C1020.7,567.6,1015.2,568.1,1007.5,568.2z M1006.9,535.8
				c0.2,9.5,0.4,19.1,0.6,28.6c1.1,0,1.9,0.1,2.5,0c4.1-0.1,7.1-1.3,9.3-3.7c2.1-2.4,3.1-6.1,3-11c-0.1-4.9-1.3-8.5-3.5-10.7
				c-2.2-2.2-5.5-3.3-9.8-3.2C1008.3,535.8,1007.6,535.8,1006.9,535.8z"/>
			<path class="st3" d="M1085.4,576.7c-8,0.4-16,0.8-24,1.1c-0.9,2.2-1.7,4.4-2.6,6.6c-0.9,2.2-1.3,4-1.2,5.4c0.1,1.9,0.9,3.2,2.5,4
				c0.9,0.5,3.2,0.8,6.8,0.9c0,0.6,0.1,1.2,0.1,1.8c-7.6,0.3-15.2,0.6-22.8,0.9c0-0.6,0-1.2-0.1-1.8c2.4-0.4,4.4-1.5,5.9-3.2
				c1.5-1.7,3.3-5.1,5.5-10.2c7.4-17.9,14.7-35.8,21.8-53.8c0.3,0,0.6,0,0.9,0c8.9,17.7,17.9,35.3,27.1,53c2.6,5,4.8,8.1,6.3,9.4
				c1.2,0.9,2.8,1.4,4.9,1.5c0,0.6,0.1,1.2,0.1,1.8c-11,0.7-22,1.3-33.1,1.8c0-0.6-0.1-1.2-0.1-1.8c0.5,0,0.9,0,1.4-0.1
				c2.7-0.1,4.5-0.6,5.5-1.4c0.7-0.6,1-1.3,1-2.3c0-0.6-0.2-1.2-0.4-1.8c-0.1-0.3-0.6-1.5-1.7-3.6
				C1088.1,582.1,1086.7,579.4,1085.4,576.7z M1083.5,573.2c-3.7-7.4-7.4-14.9-11.1-22.3c-3.1,7.7-6.2,15.5-9.4,23.2
				C1069.8,573.8,1076.7,573.5,1083.5,573.2z"/>
			<path class="st3" d="M1185.3,522.3c0.1,0.6,0.1,1.2,0.2,1.8c-2.2,0.5-3.8,1.3-4.9,2.3c-1.5,1.5-3.8,5.4-6.8,11.8
				c-4.2,8.4-8.4,16.7-12.6,25.1c0.4,5.3,0.8,10.6,1.3,16c0.3,3.4,0.6,5.5,1.1,6.3c0.4,0.8,1.2,1.5,2.4,2c1.1,0.5,2.6,0.7,4.4,0.6
				c1.3-0.1,2.5-0.2,3.8-0.3c0.1,0.6,0.1,1.2,0.1,1.8c-12.8,1.1-25.5,2-38.3,2.9c0-0.6-0.1-1.2-0.1-1.8c1.2-0.1,2.4-0.2,3.6-0.2
				c2-0.1,3.6-0.6,4.7-1.4c0.8-0.5,1.5-1.3,1.9-2.5c0.3-0.8,0.3-2.9,0.1-6.2c-0.3-4.4-0.6-8.8-1-13.2c-6-9-11.9-18.1-17.8-27.2
				c-3.5-5.4-5.9-8.5-7.2-9.4c-1.3-0.9-3.1-1.3-5.2-1.2c0-0.6-0.1-1.2-0.1-1.8c10.6-0.7,21.3-1.4,31.9-2.2c0,0.6,0.1,1.2,0.1,1.8
				c-0.5,0-0.9,0.1-1.4,0.1c-1.9,0.1-3.3,0.5-4,1.1c-0.7,0.6-1.1,1.2-1,1.8c0.1,1.2,1.6,4,4.6,8.5c4.6,7,9.2,14,13.8,20.9
				c3.5-7,7-13.9,10.5-20.9c2.6-5.1,3.8-8.5,3.7-10.1c-0.1-0.9-0.6-1.6-1.5-2.1c-1.2-0.7-3.3-1-6.3-1c0-0.6-0.1-1.2-0.1-1.8
				C1171.8,523.5,1178.6,522.9,1185.3,522.3z"/>
			<path class="st3" d="M1233.5,516c1,7.3,2,14.6,2.9,21.9c-0.7,0.1-1.3,0.1-2,0.2c-1.6-5.4-4.4-9.6-8.4-12.5
				c-4.1-3-8.3-4.2-12.6-3.8c-3.3,0.3-5.9,1.5-7.7,3.4c-1.8,2-2.6,4.1-2.3,6.4c0.1,1.5,0.6,2.7,1.4,3.8c1.1,1.4,2.8,2.8,5,4.1
				c1.7,0.9,5.4,2.5,11.3,4.6c8.2,3,13.9,6,17.1,9c3.1,3.1,4.9,6.8,5.4,11.1c0.6,5.5-1.1,10.5-5.1,14.9c-4,4.4-9.4,7-16.3,7.7
				c-2.1,0.2-4.2,0.2-6.2,0c-2-0.2-4.4-0.8-7.4-1.7c-1.7-0.5-3-0.7-4.1-0.6c-0.9,0.1-1.8,0.5-2.7,1.2c-0.9,0.7-1.6,1.8-2.1,3.2
				c-0.6,0.1-1.2,0.1-1.9,0.2c-0.8-8.3-1.5-16.6-2.3-24.9c0.6-0.1,1.2-0.1,1.8-0.2c2.1,6.9,5.4,11.9,10,15.2
				c4.6,3.3,9.3,4.7,14.1,4.2c3.8-0.4,6.6-1.7,8.7-3.9c2-2.2,2.9-4.6,2.6-7.2c-0.2-1.6-0.8-3-1.8-4.4c-1-1.4-2.4-2.6-4.3-3.7
				c-1.9-1.1-5.1-2.5-9.7-4.2c-6.4-2.3-11.1-4.4-14-6.2c-2.9-1.8-5.2-3.9-6.8-6.4c-1.7-2.4-2.7-5.2-2.9-8.3c-0.5-5.3,1.1-9.9,4.6-14
				c3.5-4.1,8.3-6.4,14.2-7c2.2-0.2,4.3-0.2,6.3,0.1c1.6,0.2,3.5,0.8,5.8,1.6c2.3,0.8,3.9,1.2,4.8,1.1c0.8-0.1,1.5-0.4,1.9-1
				c0.4-0.6,0.8-1.9,1-3.9C1232.5,516.1,1233,516,1233.5,516z"/>
			<path class="st3" d="M1317.9,573.7c-13.3,1.9-26.7,3.6-40,5.3c0-0.4-0.1-0.7-0.1-1.1c10.5-15.6,16.6-26.1,18.6-31.3
				c1.9-5.2,2.6-10.1,2-14.8c-0.5-3.4-1.9-6.1-4.3-8c-2.4-2-5.2-2.7-8.2-2.3c-5,0.7-8.6,3.6-10.8,9c-0.6-0.1-1.3-0.3-1.9-0.4
				c1-6.4,3.1-11.3,6.3-14.8c3.2-3.4,7.2-5.4,11.8-6.1c3.4-0.4,6.5-0.1,9.5,1.1c3,1.2,5.4,3,7.4,5.5c1.9,2.5,3.1,4.9,3.4,7.2
				c0.6,4.3,0,8.8-1.8,13.6c-2.5,6.4-8.6,15.7-18.6,27.9c4.9-0.6,9.7-1.3,14.6-1.9c3.6-0.5,5.9-1,6.9-1.4c1-0.4,1.9-1.1,2.5-1.8
				c0.6-0.8,1.3-2.4,2.1-4.8c0.6-0.1,1.2-0.2,1.8-0.3C1318.7,560.7,1318.3,567.2,1317.9,573.7z"/>
			<path class="st3" d="M1405.3,492.8c1,5.9,2.1,11.8,3.1,17.6c-0.6,0.1-1.2,0.2-1.8,0.3c-1.8-3.9-3.4-6.6-5-8.2
				c-1.6-1.6-3.6-2.7-6-3.3c-1.3-0.4-3.5-0.3-6.6,0.3c-1.6,0.3-3.3,0.6-4.9,0.8c2.8,16.8,5.7,33.6,8.5,50.4c0.6,3.3,1.1,5.4,1.6,6.2
				c0.5,0.8,1.4,1.4,2.6,1.8c1.2,0.4,2.8,0.5,4.7,0.2c0.7-0.1,1.5-0.3,2.2-0.4c0.1,0.6,0.2,1.2,0.3,1.8c-11.8,2-23.6,4-35.5,5.9
				c-0.1-0.6-0.2-1.2-0.3-1.8c0.7-0.1,1.5-0.2,2.2-0.4c2-0.3,3.5-0.9,4.6-1.8c0.8-0.6,1.3-1.5,1.7-2.6c0.2-0.8,0.1-2.9-0.4-6.2
				c-2.7-16.8-5.5-33.6-8.2-50.4c-1.6,0.3-3.2,0.5-4.8,0.8c-4.5,0.7-7.5,2.2-9.3,4.3c-2.4,3-3.6,7-3.6,12c-0.6,0.1-1.2,0.2-1.9,0.3
				c-0.9-5.9-1.8-11.8-2.7-17.7C1365.8,499.6,1385.6,496.4,1405.3,492.8z"/>
			<path class="st3" d="M1447.1,484.1c10.4-2.4,19.5-1.1,27.4,3.9c7.9,5.1,12.9,12.4,14.9,22c1.7,8.2,0.8,16-2.9,23.3
				c-4.9,9.7-13.4,15.7-25.5,18.1c-12.2,2.4-22.3,0.2-30.4-6.5c-6.4-5.3-10.3-12.3-11.9-20.9c-1.8-9.7,0.1-18.3,5.6-26
				C1429.8,490.2,1437.4,485.6,1447.1,484.1z M1448.3,487c-6,1.2-10,5.1-12,11.8c-1.6,5.5-1.6,12.9,0.2,22.2
				c2.1,11.1,5.6,18.9,10.7,23.5c3.5,3.2,7.8,4.3,12.9,3.3c3.4-0.7,6.1-2,8.1-4.1c2.5-2.6,4.1-6.3,4.8-11.2c0.7-4.8,0.3-10.8-1.1-18
				c-1.7-8.6-3.9-14.8-6.3-18.8c-2.5-3.9-5.2-6.5-8-7.8C1454.7,486.7,1451.6,486.4,1448.3,487z"/>
			<path class="st3" d="M1542.8,463c4.1,17.6,8.3,35.1,12.4,52.7c0.9,4,1.7,6.4,2.3,7.5c0.6,1,1.6,1.7,2.9,2.1
				c1.3,0.4,3.2,0.3,5.8-0.3c0.5-0.1,1-0.2,1.5-0.4c0.1,0.6,0.3,1.2,0.4,1.8c-11.8,2.8-23.5,5.6-35.3,8.2c-0.1-0.6-0.3-1.2-0.4-1.8
				c0.6-0.1,1.2-0.3,1.8-0.4c2.9-0.6,4.8-1.4,5.9-2.3c1.1-0.9,1.7-2,1.9-3.2c0.2-1.2-0.2-3.8-1.1-7.9c-2.6-11.2-5.1-22.3-7.7-33.5
				c-0.7-3-1.3-4.8-1.7-5.5c-0.5-0.7-1.2-1.2-2.1-1.5c-0.9-0.3-1.9-0.4-2.9-0.2c-1.6,0.4-3.5,1.3-5.7,2.9c-0.4-0.5-0.8-1-1.3-1.5
				c7.2-5.4,14.5-10.9,21.6-16.4C1541.7,463.2,1542.3,463.1,1542.8,463z"/>
		</g>
	</g>
</g>
<g id="Layer_3">
	<path class="st4" d="M1060.5,981h-201c-6.6,0-12-5.4-12-12V705c0-6.6,5.4-12,12-12h201c6.6,0,12,5.4,12,12v264
		C1072.5,975.6,1067.1,981,1060.5,981z"/>
</g>
</svg>
